<svg id="Ebene_1" data-name="Ebene 1" xmlns="http://www.w3.org/2000/svg" viewBox="0 0 273.96571 784.95811"><defs><style>.cls-1{fill:#fff;}.cls-2{fill:#9d9d9c;}.cls-3{fill:#00adee;}.cls-4{fill:#005aa9;}.cls-5{fill:#58595b;}.cls-6{fill:#eb008b;}</style></defs><rect id="BACKGROUND" y="588.71858" width="273.96571" height="196.23953"/><g id="WHITE"><g id="CLOUD"><path class="cls-1" d="M47.46191,742.09286c-11.01293,0-19.712-9.55727-19.712-21.41785,0-12.62848,8.53239-20.39658,19.37155-20.39658,5.28768,0,12.54166,2.04979,12.54166,6.48622v3.415H69.81437v-6.7432c0-10.32505-15.18877-13.56642-22.94992-13.56642-17.579,0-30.72509,13.31276-30.72509,30.805,0,17.91936,12.63181,31.82972,31.14891,31.82972a33.57206,33.57206,0,0,0,24.40905-10.41187l-5.89209-8.02174A25.84333,25.84333,0,0,1,47.46191,742.09286Z"/><path class="cls-1" d="M91.77773,740.47051V696.69659c0-4.01247-1.79266-5.80165-5.8018-5.80165h-10.325v9.21333h3.41154a1.67508,1.67508,0,0,1,1.88295,1.87948v43.69043c0,4.096,1.70236,5.80166,5.80179,5.80166H96.98192V742.35H93.65373A1.70772,1.70772,0,0,1,91.77773,740.47051Z"/><path class="cls-1" d="M125.49748,706.93482c-13.22247,0-23.80464,9.47393-23.80464,22.78669,0,13.39625,10.58217,22.78322,23.80464,22.78322,13.31276,0,23.89493-9.387,23.89493-22.78322C149.39241,716.40875,138.81024,706.93482,125.49748,706.93482Zm0,36.3531c-6.99685,0-12.882-5.46132-12.882-13.56641,0-8.02175,5.88514-13.56989,12.882-13.56989,7.08715,0,12.97229,5.54814,12.97229,13.56989C138.46977,737.8266,132.58463,743.28792,125.49748,743.28792Z"/><path class="cls-1" d="M199.59323,740.47051v-32.5108H188.761v19.96914c0,7.76476-4.35655,14.67813-12.208,14.67813-5.371,0-6.73987-3.58518-6.73987-8.87633V713.67816c0-3.92579-1.70223-5.71845-5.71831-5.71845h-10.325v9.2168h3.41848a1.6692,1.6692,0,0,1,1.876,1.876V735.9506c0,11.86071,5.71831,16.55413,15.01513,16.55413a16.44062,16.44062,0,0,0,15.02207-9.0465h.1667s-.08335.93793-.08335,1.96282v1.19506c0,3.07121,1.9663,4.86373,5.71831,4.86373h9.98471V742.35h-3.41168A1.71288,1.71288,0,0,1,199.59323,740.47051Z"/><path class="cls-1" d="M254.49817,742.35a1.70777,1.70777,0,0,1-1.87615-1.87948V696.69659c0-4.01247-1.79252-5.80165-5.8086-5.80165h-10.325v9.21333h3.41848a1.6702,1.6702,0,0,1,1.876,1.87948v7.6778c0,1.45218.08335,2.56042.08335,2.56042h-.16669s-3.07815-5.29115-12.54847-5.29115c-11.52024,0-19.7955,8.95981-19.7955,22.78669,0,13.47959,7.59431,22.78322,19.37154,22.78322,9.98471,0,13.56989-7.08368,13.56989-7.08368h.16683v1.62236c0,2.56042,1.45219,4.43643,5.37784,4.43643h9.98471V742.35Zm-23.38082,1.02475c-6.39926,0-10.75581-5.37783-10.75581-13.65323,0-8.61921,4.954-13.48293,10.9225-13.48293,7.254,0,10.75595,6.65638,10.75595,13.39611C242.04,739.27879,236.74536,743.37474,231.11735,743.37474Z"/></g><g id="deNBI"><path class="cls-1" d="M31.375,635.74652c7.28707,0,9.6523,4.07237,9.6523,4.07237h.1319s-.069-.85425-.069-1.97092v-5.90934a1.28509,1.28509,0,0,0-1.44266-1.44539H37.02262v-7.093H44.9678c3.0876,0,4.466,1.37841,4.466,4.46532v33.68877a1.31434,1.31434,0,0,0,1.44675,1.44538h2.55727v7.02738h-7.6807c-3.022,0-4.13661-1.4447-4.13661-3.41562V665.365h-.13189s-2.7582,5.45009-10.44164,5.45009c-9.06321-.00068-14.90763-7.15723-14.90763-17.53393,0-10.63777,6.36858-17.53462,15.23567-17.53462m9.91746,17.46833c0-5.18631-2.69258-10.30906-8.27731-10.30906-4.5938,0-8.40579,3.74161-8.40579,10.37535,0,6.36926,3.3507,10.50587,8.27663,10.50587,4.33342,0,8.40647-3.1491,8.40647-10.57216"/><path class="cls-1" d="M186.59718,623.39958c-3.15115,0-4.46532,1.37977-4.46532,4.46532v21.3425c0,2.69327.46061,6.56814.46061,6.56814h-.13189s-2.03585-3.87487-3.87623-6.56814l-17.66516-25.80782h-7.749v37.89234a1.27889,1.27889,0,0,1-1.375,1.40438v-.00341h-5.70363a29.51008,29.51008,0,0,1-6.60709,7.33422h17.821c3.1532,0,4.46328-1.31486,4.46328-4.466v-21.2769c0-2.69327-.45584-6.56746-.45584-6.56746h.12848a70.02943,70.02943,0,0,0,3.87623,6.56746l17.72871,25.74358h7.68412v-37.893a1.31537,1.31537,0,0,1,1.44676-1.4447h2.82243v-7.29048Z"/><path class="cls-1" d="M203.67256,630.68938h-4.2685v-7.2898h20.163c8.40511,0,14.44635,4.33547,14.44635,12.01959a10.867,10.867,0,0,1-5.64761,9.981v.12917c5.05852,1.511,7.488,6.23942,7.488,10.96716,0,9.32565-7.421,13.5299-16.09061,13.5299H208.13719c-3.08691,0-4.46463-1.31417-4.46463-4.46531V630.68938Zm15.95869,11.7558c3.61107,0,5.64829-2.62561,5.64829-5.97494s-1.96887-5.78018-5.77676-5.78018h-7.22625v11.75512ZM213.72191,662.738h6.69935c4.20016,0,6.5654-2.82516,6.5654-6.76358,0-3.87487-2.42947-6.698-6.5654-6.698h-8.1461v12.01618a1.31526,1.31526,0,0,0,1.44675,1.44538"/><polygon class="cls-1" points="239.669 662.738 245.018 662.738 245.018 630.689 239.669 630.689 239.669 623.4 257.826 623.4 257.826 630.689 253.16 630.689 253.16 662.738 257.826 662.738 257.826 670.028 239.669 670.028 239.669 662.738"/><path class="cls-1" d="M103.17825,670.1139l-.1278-.09431a29.5006,29.5006,0,0,1-6.59752-7.3267H71.69275c-3.935-.43054-5.58335-2.69669-6.16971-7.96705H88.64033s.19614-2.10213.19614-3.08622c0-8.86777-5.25191-15.8931-14.8393-15.8931-10.04868,0-17.01318,7.2242-17.01318,17.53462,0,9.52314,4.83708,16.84506,15.93273,16.84506.54877,0,1.07977-.00683,1.6053-.01435l28.65623.002Zm-29.1804-27.93114c3.41563,0,6.17245,2.75888,6.30161,6.76359H65.78752c.91917-4.20222,3.94115-6.76359,8.21033-6.76359"/><path class="cls-1" d="M120.1429,668.73207a2.41055,2.41055,0,0,0-.29239.09272l-9.12138-13.53439.58954.10086.23042-1.34724-2.66206-.45532-.60761-.628.70576-.26879-6.247-16.403a2.43343,2.43343,0,1,0-1.24562.57144l5.70639,14.9834-7.51378-7.76664A2.49154,2.49154,0,1,0,98.656,644.98l7.95109,8.21871-6.22532-1.0648c-.0086-.07717-.00835-.15363-.02457-.23117a2.46016,2.46016,0,1,0-.21181,1.5774l7.57235,1.29522-4.611,4.13938a2.42238,2.42238,0,0,0-3.47738,2.66147,2.43466,2.43466,0,0,0,4.766-.99773,2.40955,2.40955,0,0,0-.28951-.72311l4.424-3.97154,1.13054,10.39646a2.42421,2.42421,0,1,0,1.36446-.10766l-1.03669-9.5334,8.74727,12.97925a2.42225,2.42225,0,1,0,1.40742-.8864Z"/><path class="cls-1" d="M144.06662,650.51542a2.421,2.421,0,0,0-1.28079.728l-5.98578-3.1293,6.34379-2.69021a2.43515,2.43515,0,1,0-.51814-1.26557l-6.29231,2.66836,5.35894-8.78611a2.45656,2.45656,0,1,0-1.17017-.71017l-5.45742,8.94757,1.051.641-1.05755.44847.459,1.08237-1.09534-.082-1.27073,16.96373a2.44413,2.44413,0,1,0,1.365.08343l1.11694-14.91058,3.65279,8.71879a2.43824,2.43824,0,1,0,1.27578-.49366l-3.81191-9.0986,5.4223,2.83474a2.43363,2.43363,0,1,0,1.89461-1.95021Zm-7.8489-2.15439.08709-.03692-.05693.10891Z"/><path class="cls-1" d="M109.68968,629.08545a2.41905,2.41905,0,0,0,1.20529-.65053l9.38041,5.22872.46833,1.07252,12.49045-5.45471a2.42687,2.42687,0,1,0-.65279-1.20708l-9.86463,4.308,3.97417-5.85789a2.409,2.409,0,0,0,1.20787.0652,2.46734,2.46734,0,1,0-2.3493-.81721l-4.20129,6.19267-2.11305-6.34859a2.4409,2.4409,0,1,0-1.30218.4177l1.94441,5.84192-8.31786-4.63646a2.43128,2.43128,0,1,0-1.86983,1.84576Zm12.26779,3.62851-.31434.13727-.1507-.45278Z"/><rect class="cls-1" x="119.91548" y="633.4088" width="2.73507" height="13.85307" transform="translate(-5.94962 1.15557) rotate(-0.53284)"/><rect class="cls-1" x="108.12369" y="649.54517" width="14.23369" height="2.73562" transform="translate(-317.77596 151.44846) rotate(-30.88416)"/><rect class="cls-1" x="126.98558" y="640.49057" width="2.73491" height="14.01964" transform="translate(-523.1477 753.6986) rotate(-88.0458)"/><path class="cls-1" d="M127.89332,645.88814a6.68686,6.68686,0,1,1-7.91648-5.174,6.688,6.688,0,0,1,7.91648,5.174"/><path class="cls-1" d="M124.55287,632.70813a3.40774,3.40774,0,1,1-4.03342-2.63654,3.4079,3.4079,0,0,1,4.03342,2.63654"/><path class="cls-1" d="M112.46972,653.86818a3.40807,3.40807,0,1,1-4.0341-2.63724,3.40886,3.40886,0,0,1,4.0341,2.63724"/><path class="cls-1" d="M138.38142,647.10527a3.40833,3.40833,0,1,1-4.03546-2.63791,3.40862,3.40862,0,0,1,4.03546,2.63791"/></g><path class="cls-1" d="M42.31526,680.69169H24.28157v.00482a15.978,15.978,0,0,1-10.65772-4.35639A15.40683,15.40683,0,0,1,8.9969,664.87333c.00049-.01306-.006-.02417-.006-.03711h.00653V621.65848H8.99562c0-.01312.00665-.02435.00616-.03759a15.94576,15.94576,0,0,1,4.35254-10.9834,15.39051,15.39051,0,0,1,11.46631-4.627.97146.97146,0,0,0,.49744-.12255H71.308a4.06823,4.06823,0,0,0,3.96814,3.1856h4.071v-1.52685h4.071V606.529h-4.071v-3.05323h4.071V602.458h-4.071v-1.52642h-4.071v.00006a4.05859,4.05859,0,0,0-3.897,2.95636H24.85774v.1228A17.46044,17.46044,0,0,0,11.908,609.25565,18.06146,18.06146,0,0,0,7.0019,621.65848H6.99739V664.8212A17.44426,17.44426,0,0,0,12.242,677.78641a18.13131,18.13131,0,0,0,12.13085,4.90967c.1316,0,.22706-.0025.29041-.00439H249.68391v-2Z"/><path class="cls-1" d="M92.14131,607.36277a5,5,0,0,0,.65008.838,4.50463,4.50463,0,0,0,.82965.68421,4.239,4.239,0,0,0,.9751.46215,3.5135,3.5135,0,0,0,1.10321.17121,3.69805,3.69805,0,0,0,1.676-.37653,4.10821,4.10821,0,0,0,1.29181-1.00091,4.55516,4.55516,0,0,0,.838-1.46235,5.18883,5.18883,0,0,0,.29931-1.76159,4.69717,4.69717,0,0,0-.316-1.68506,4.91872,4.91872,0,0,0-.88117-1.47974,4.35116,4.35116,0,0,0-1.35168-1.04333,3.76578,3.76578,0,0,0-1.71009-.39325,3.48963,3.48963,0,0,0-1.00091.14551,4.27021,4.27021,0,0,0-.941.41064,4.51331,4.51331,0,0,0-.838.63269,4.31787,4.31787,0,0,0-.65845.79553v-1.848h-.54706v12.53876h.58118Zm0-3.9339a1.9493,1.9493,0,0,1,.39325-.9751,3.75376,3.75376,0,0,1,.82965-.81225,4.61885,4.61885,0,0,1,1.044-.56446,2.92967,2.92967,0,0,1,1.0517-.21435,3.31241,3.31241,0,0,1,1.47138.334,3.92963,3.92963,0,0,1,1.19714.89789,4.22368,4.22368,0,0,1,.80389,1.30017,4.10939,4.10939,0,0,1,.291,1.52216,4.41474,4.41474,0,0,1-.25684,1.47973,4.2736,4.2736,0,0,1-.72662,1.29944,3.653,3.653,0,0,1-1.138.92432,3.2572,3.2572,0,0,1-2.58295.15381,3.843,3.843,0,0,1-.9751-.53034,4.58647,4.58647,0,0,1-.81225-.78717,4.158,4.158,0,0,1-.59021-.96606Z"/><path class="cls-1" d="M102.54115,608.1583a4.41533,4.41533,0,0,0,1.36005.99182,3.88331,3.88331,0,0,0,1.68438.36823,3.93876,3.93876,0,0,0,1.69336-.36823,4.2871,4.2871,0,0,0,1.36005-.99182,4.79944,4.79944,0,0,0,1.24029-3.22461,4.79545,4.79545,0,0,0-1.24865-3.24969,4.34456,4.34456,0,0,0-1.36835-1.00092,3.91571,3.91571,0,0,0-1.6767-.36749,3.85755,3.85755,0,0,0-1.66766.36749,4.366,4.366,0,0,0-1.36005,1.00092,4.80475,4.80475,0,0,0-1.24865,3.24969,4.83665,4.83665,0,0,0,.32507,1.76233A4.512,4.512,0,0,0,102.54115,608.1583Zm-.35077-4.78924a4.30126,4.30126,0,0,1,.80389-1.30018,3.85491,3.85491,0,0,1,1.17212-.88116,3.19959,3.19959,0,0,1,1.41919-.325,3.256,3.256,0,0,1,1.42823.325,3.87533,3.87533,0,0,1,1.18041.8728,4.07031,4.07031,0,0,1,.79554,1.29114,4.35632,4.35632,0,0,1,0,3.13068,4.0781,4.0781,0,0,1-.79554,1.29107,3.86235,3.86235,0,0,1-1.18041.87213,3.2831,3.2831,0,0,1-1.445.325,3.32708,3.32708,0,0,1-1.42822-.316,3.6548,3.6548,0,0,1-1.17212-.86377,4.29777,4.29777,0,0,1-.77814-4.42175Z"/><polygon class="cls-1" points="115.045 609.347 117.148 604.489 119.236 609.347 119.731 609.347 123.598 600.452 122.998 600.452 119.475 608.646 117.457 603.976 118.962 600.469 118.415 600.469 117.148 603.463 115.866 600.469 115.335 600.469 116.823 603.976 114.822 608.646 111.282 600.452 110.683 600.452 114.549 609.347 115.045 609.347"/><path class="cls-1" d="M125.6761,608.14091a4.35082,4.35082,0,0,0,1.37671,1.00921,3.93883,3.93883,0,0,0,1.69342.36823,4.1726,4.1726,0,0,0,1.163-.16291,4.62392,4.62392,0,0,0,1.05237-.4447,3.42449,3.42449,0,0,0,.84637-.6842,2.98173,2.98173,0,0,0,.54773-.86377l-.53033-.13642a2.939,2.939,0,0,1-.49628.72663,3.07333,3.07333,0,0,1-.71826.57281,3.66444,3.66444,0,0,1-1.83057.49628,3.3296,3.3296,0,0,1-1.3941-.29926,3.84566,3.84566,0,0,1-1.163-.81225,4.12214,4.12214,0,0,1-.82129-1.22363,4.67339,4.67339,0,0,1-.38422-1.53052h7.97076a.23219.23219,0,0,0,.01673-.11969v-.13715a4.75917,4.75917,0,0,0-.33344-1.779,4.636,4.636,0,0,0-.91522-1.46234,4.27383,4.27383,0,0,0-1.36841-.98346,4.06567,4.06567,0,0,0-1.71008-.35919,3.91683,3.91683,0,0,0-1.6767.35919,4.3993,4.3993,0,0,0-1.35095.9751,4.46085,4.46085,0,0,0-.90692,1.43658,4.751,4.751,0,0,0-.32507,1.76233,4.87086,4.87086,0,0,0,.3341,1.80408A4.722,4.722,0,0,0,125.6761,608.14091Zm-.30835-5.00293a4.06118,4.06118,0,0,1,.78717-1.21454,3.55368,3.55368,0,0,1,1.13733-.804,3.401,3.401,0,0,1,1.40246-.29089,3.478,3.478,0,0,1,1.40314.28259,3.63912,3.63912,0,0,1,1.154.7948,4.0183,4.0183,0,0,1,.813,1.2146,4.48115,4.48115,0,0,1,.35913,1.53955h-7.40631A4.56918,4.56918,0,0,1,125.36775,603.138Z"/><path class="cls-1" d="M135.53651,603.75394a3.79814,3.79814,0,0,1,1.26605-1.976,3.5619,3.5619,0,0,1,2.13819-.77814V600.452h-.23108c-.09674,0-.20252.00629-.31671.01746a3.26559,3.26559,0,0,0-1.64185.70154,4.33106,4.33106,0,0,0-1.23126,1.53961V600.452h-.56452v8.89514h.58118Z"/><path class="cls-1" d="M140.79774,608.14091a4.35149,4.35149,0,0,0,1.37671,1.00921,3.93883,3.93883,0,0,0,1.69342.36823,4.1726,4.1726,0,0,0,1.163-.16291,4.62392,4.62392,0,0,0,1.05237-.4447,3.42326,3.42326,0,0,0,.84638-.6842,2.98068,2.98068,0,0,0,.54773-.86377l-.53034-.13642a2.93863,2.93863,0,0,1-.49627.72663,3.07359,3.07359,0,0,1-.71827.57281,3.66444,3.66444,0,0,1-1.83056.49628,3.32965,3.32965,0,0,1-1.39411-.29926,3.84652,3.84652,0,0,1-1.163-.81225,4.12251,4.12251,0,0,1-.82129-1.22363,4.67339,4.67339,0,0,1-.38422-1.53052h7.97077a.23154.23154,0,0,0,.01672-.11969v-.13715a4.76052,4.76052,0,0,0-.33337-1.779,4.63739,4.63739,0,0,0-.91529-1.46234,4.2742,4.2742,0,0,0-1.36834-.98346,4.06619,4.06619,0,0,0-1.71015-.35919,3.91679,3.91679,0,0,0-1.67669.35919,4.4009,4.4009,0,0,0-1.351.9751,4.46085,4.46085,0,0,0-.90692,1.43658,4.75094,4.75094,0,0,0-.325,1.76233,4.87063,4.87063,0,0,0,.334,1.80408A4.72176,4.72176,0,0,0,140.79774,608.14091Zm-.30835-5.00293a4.06118,4.06118,0,0,1,.78717-1.21454,3.55379,3.55379,0,0,1,1.13733-.804,3.40106,3.40106,0,0,1,1.40247-.29089,3.478,3.478,0,0,1,1.40313.28259,3.63916,3.63916,0,0,1,1.154.7948,4.01846,4.01846,0,0,1,.813,1.2146,4.48069,4.48069,0,0,1,.35913,1.53955h-7.40631A4.56918,4.56918,0,0,1,140.48939,603.138Z"/><path class="cls-1" d="M150.64985,608.09012a4.5127,4.5127,0,0,0,1.36,1.035,3.77671,3.77671,0,0,0,1.71014.39325,3.52536,3.52536,0,0,0,.99249-.14545,4.28993,4.28993,0,0,0,1.77-1.02667,4.08005,4.08005,0,0,0,.65912-.81226v1.07746a.76574.76574,0,0,0,.20465.522.66013.66013,0,0,0,.51367.23108.4493.4493,0,0,0,.13642-.0174V608.8c-.20532,0-.30762-.126-.30762-.37652V596.86057h-.58191v5.60993a4.88272,4.88272,0,0,0-.62433-.82062,4.5588,4.5588,0,0,0-.82055-.69324,4.05079,4.05079,0,0,0-.98352-.46979,3.6525,3.6525,0,0,0-1.12891-.17126,3.61522,3.61522,0,0,0-1.64264.37659,4.15556,4.15556,0,0,0-1.29944,1.00921,4.69931,4.69931,0,0,0-.85541,1.47064,5.06929,5.06929,0,0,0-.30835,1.76166,4.6702,4.6702,0,0,0,.31672,1.69342A4.72528,4.72528,0,0,0,150.64985,608.09012Zm-.35083-4.65289a4.38648,4.38648,0,0,1,.71833-1.30017,3.56331,3.56331,0,0,1,1.1289-.92358,3.14828,3.14828,0,0,1,1.4881-.35077,3.0642,3.0642,0,0,1,1.05237.197,4.41708,4.41708,0,0,1,1.01758.53033,4.11217,4.11217,0,0,1,.847.7865,3.37483,3.37483,0,0,1,.55542.9668v3.06177a2.03123,2.03123,0,0,1-.38489.98346,3.49381,3.49381,0,0,1-.82061.82128,4.30077,4.30077,0,0,1-1.05237.55542,3.09953,3.09953,0,0,1-1.06.20533,3.30715,3.30715,0,0,1-1.47137-.33338,3.88341,3.88341,0,0,1-1.18885-.88952,4.22462,4.22462,0,0,1-.79553-1.28272,4.08927,4.08927,0,0,1-.29022-1.53125A4.46216,4.46216,0,0,1,150.299,603.43723Z"/><path class="cls-1" d="M165.47151,607.534a4.32864,4.32864,0,0,0,1.45331,1.41992,3.73917,3.73917,0,0,0,1.98364.56446,3.79255,3.79255,0,0,0,1.669-.37653,4.47185,4.47185,0,0,0,1.35865-1.00928,4.6358,4.6358,0,0,0,.90759-1.46228,4.73716,4.73716,0,0,0,.32434-1.73657,5.121,5.121,0,0,0-.28259-1.66766,4.82251,4.82251,0,0,0-.80316-1.47974,4.15094,4.15094,0,0,0-1.28345-1.06006,3.58976,3.58976,0,0,0-1.7359-.41064,3.52169,3.52169,0,0,0-2.0268.59857,5.775,5.775,0,0,0-1.53125,1.55634v-5.60993h-.58184v12.48657h.54846Zm.03338-4.19067a5.11612,5.11612,0,0,1,.59027-.941,4.671,4.671,0,0,1,.7865-.7865,3.75762,3.75762,0,0,1,.96741-.54773,3.10121,3.10121,0,0,1,1.129-.20532,3.16722,3.16722,0,0,1,1.47.3424,3.62184,3.62184,0,0,1,1.13867.90619,4.29151,4.29151,0,0,1,.73505,1.30017,4.45758,4.45758,0,0,1,.26446,1.52222,4.05752,4.05752,0,0,1-.28119,1.47974,4.305,4.305,0,0,1-.77954,1.29181,3.91888,3.91888,0,0,1-1.18878.91522,3.29663,3.29663,0,0,1-1.51318.3501,3.23278,3.23278,0,0,1-1.06073-.19629,4.11624,4.11624,0,0,1-1.05237-.54773,3.56346,3.56346,0,0,1-.81989-.81226,1.98806,1.98806,0,0,1-.38562-.9751Z"/><path class="cls-1" d="M177.32466,610.91245c-.1698.39325-.30762.70093-.40924.92365a3.00852,3.00852,0,0,1-.24921.46142.65749.65749,0,0,1-.17957.17957,1.85988,1.85988,0,0,1-.80316.11975v.54773q.18787,0,.35913-.00836a2.38767,2.38767,0,0,0,.34241-.04316,1.2215,1.2215,0,0,0,.93964-.73565l5.08093-11.9054h-.58185l-3.52325,8.27912-3.746-8.27912h-.61664l4.055,8.89514Q177.58153,610.32228,177.32466,610.91245Z"/></g><g id="BLACK"><g id="CLOUD-2" data-name="CLOUD"><path d="M47.46191,545.85334c-11.01293,0-19.712-9.55728-19.712-21.41786,0-12.62848,8.53239-20.39657,19.37155-20.39657,5.28768,0,12.54166,2.04978,12.54166,6.48621v3.415H69.81437v-6.7432c0-10.325-15.18877-13.56642-22.94992-13.56642-17.579,0-30.72509,13.31277-30.72509,30.805,0,17.91936,12.63181,31.82972,31.14891,31.82972a33.57207,33.57207,0,0,0,24.40905-10.41186l-5.89209-8.02175A25.84332,25.84332,0,0,1,47.46191,545.85334Z"/><path d="M91.77773,544.231V500.45706c0-4.01247-1.79266-5.80165-5.8018-5.80165h-10.325v9.21333h3.41154a1.67508,1.67508,0,0,1,1.88295,1.87948v43.69043c0,4.096,1.70236,5.80166,5.80179,5.80166H96.98192v-9.12985H93.65373A1.70772,1.70772,0,0,1,91.77773,544.231Z"/><path d="M125.49748,510.69529c-13.22247,0-23.80464,9.47393-23.80464,22.78669,0,13.39625,10.58217,22.78322,23.80464,22.78322,13.31276,0,23.89493-9.387,23.89493-22.78322C149.39241,520.16922,138.81024,510.69529,125.49748,510.69529Zm0,36.35311c-6.99685,0-12.882-5.46133-12.882-13.56642,0-8.02175,5.88514-13.56989,12.882-13.56989,7.08715,0,12.97229,5.54814,12.97229,13.56989C138.46977,541.58707,132.58463,547.0484,125.49748,547.0484Z"/><path d="M199.59323,544.231v-32.5108H188.761v19.96914c0,7.76476-4.35655,14.67813-12.208,14.67813-5.371,0-6.73987-3.58518-6.73987-8.87633V517.43863c0-3.92579-1.70223-5.71845-5.71831-5.71845h-10.325v9.2168h3.41848a1.6692,1.6692,0,0,1,1.876,1.876v16.89808c0,11.86071,5.71831,16.55413,15.01513,16.55413a16.44062,16.44062,0,0,0,15.02207-9.0465h.1667s-.08335.93793-.08335,1.96283v1.19506c0,3.0712,1.9663,4.86372,5.71831,4.86372h9.98471v-9.12985h-3.41168A1.71288,1.71288,0,0,1,199.59323,544.231Z"/><path d="M254.49817,546.11046A1.70777,1.70777,0,0,1,252.622,544.231V500.45706c0-4.01247-1.79252-5.80165-5.8086-5.80165h-10.325v9.21333h3.41848a1.6702,1.6702,0,0,1,1.876,1.87948v7.6778c0,1.45218.08335,2.56042.08335,2.56042h-.16669s-3.07815-5.29115-12.54847-5.29115c-11.52024,0-19.7955,8.95982-19.7955,22.78669,0,13.4796,7.59431,22.78322,19.37154,22.78322,9.98471,0,13.56989-7.08367,13.56989-7.08367h.16683v1.62235c0,2.56042,1.45219,4.43643,5.37784,4.43643h9.98471v-9.12985Zm-23.38082,1.02475c-6.39926,0-10.75581-5.37783-10.75581-13.65323,0-8.61921,4.954-13.48293,10.9225-13.48293,7.254,0,10.75595,6.65638,10.75595,13.39611C242.04,543.03926,236.74536,547.13521,231.11735,547.13521Z"/></g><g id="deNBI-2" data-name="deNBI"><path d="M31.375,439.507c7.28707,0,9.6523,4.07237,9.6523,4.07237h.1319s-.069-.85425-.069-1.97092V435.6991a1.28509,1.28509,0,0,0-1.44266-1.44539H37.02262v-7.093H44.9678c3.0876,0,4.466,1.37841,4.466,4.46532v33.68877a1.31434,1.31434,0,0,0,1.44675,1.44539h2.55727v7.02737h-7.6807c-3.022,0-4.13661-1.4447-4.13661-3.41562v-1.24651h-.13189s-2.7582,5.45009-10.44164,5.45009c-9.06321-.00068-14.90763-7.15722-14.90763-17.53393,0-10.63777,6.36858-17.53462,15.23567-17.53462m9.91746,17.46833c0-5.18631-2.69258-10.30905-8.27731-10.30905-4.5938,0-8.40579,3.7416-8.40579,10.37534,0,6.36926,3.3507,10.50587,8.27663,10.50587,4.33342,0,8.40647-3.1491,8.40647-10.57216"/><path d="M186.59718,427.16005c-3.15115,0-4.46532,1.37978-4.46532,4.46532v21.3425c0,2.69327.46061,6.56814.46061,6.56814h-.13189s-2.03585-3.87487-3.87623-6.56814l-17.66516-25.80782h-7.749v37.89234a1.27889,1.27889,0,0,1-1.375,1.40438v-.00341h-5.70363a29.51008,29.51008,0,0,1-6.60709,7.33422h17.821c3.1532,0,4.46328-1.31486,4.46328-4.466v-21.2769c0-2.69327-.45584-6.56745-.45584-6.56745h.12848a70.02847,70.02847,0,0,0,3.87623,6.56745l17.72871,25.74358h7.68412v-37.893a1.31537,1.31537,0,0,1,1.44676-1.4447h2.82243v-7.29048Z"/><path d="M203.67256,434.44985h-4.2685v-7.2898h20.163c8.40511,0,14.44635,4.33547,14.44635,12.01959a10.867,10.867,0,0,1-5.64761,9.981v.12916c5.05852,1.511,7.488,6.23942,7.488,10.96716,0,9.32565-7.421,13.52991-16.09061,13.52991H208.13719c-3.08691,0-4.46463-1.31417-4.46463-4.46532V434.44985Zm15.95869,11.7558c3.61107,0,5.64829-2.62561,5.64829-5.97494s-1.96887-5.78018-5.77676-5.78018h-7.22625v11.75512Zm-5.90934,20.29282h6.69935c4.20016,0,6.5654-2.82517,6.5654-6.76359,0-3.87487-2.42947-6.698-6.5654-6.698h-8.1461v12.01618a1.31526,1.31526,0,0,0,1.44675,1.44539"/><polygon points="239.669 466.498 245.018 466.498 245.018 434.45 239.669 434.45 239.669 427.16 257.826 427.16 257.826 434.45 253.16 434.45 253.16 466.498 257.826 466.498 257.826 473.788 239.669 473.788 239.669 466.498"/><path d="M103.17825,473.87438l-.1278-.09431a29.50082,29.50082,0,0,1-6.59752-7.32671H71.69275c-3.935-.43054-5.58335-2.69669-6.16971-7.967H88.64033s.19614-2.10213.19614-3.08622c0-8.86777-5.25191-15.8931-14.8393-15.8931-10.04868,0-17.01318,7.2242-17.01318,17.53462,0,9.52315,4.83708,16.84507,15.93273,16.84507.54877,0,1.07977-.00684,1.6053-.01436l28.65623.00206Zm-29.1804-27.93115c3.41563,0,6.17245,2.75888,6.30161,6.76359H65.78752c.91917-4.20222,3.94115-6.76359,8.21033-6.76359"/><path d="M120.1429,472.49254a2.41055,2.41055,0,0,0-.29239.09272l-9.12138-13.53439.58954.10086.23042-1.34724-2.66206-.45532-.60761-.628.70576-.26879-6.247-16.403a2.43343,2.43343,0,1,0-1.24562.57144l5.70639,14.9834-7.51378-7.76664a2.49141,2.49141,0,1,0-1.02915.90289l7.95109,8.2187-6.22532-1.0648c-.0086-.07717-.00835-.15362-.02457-.23117a2.46016,2.46016,0,1,0-.21181,1.5774l7.57235,1.29522-4.611,4.13938a2.42238,2.42238,0,0,0-3.47738,2.66148,2.43466,2.43466,0,1,0,4.766-.99774,2.40939,2.40939,0,0,0-.28951-.7231l4.424-3.97154,1.13054,10.39645a2.42421,2.42421,0,1,0,1.36446-.10766l-1.03669-9.5334,8.74727,12.97925a2.42225,2.42225,0,1,0,1.40742-.8864Z"/><path d="M144.06662,454.27589a2.421,2.421,0,0,0-1.28079.728l-5.98578-3.1293,6.34379-2.69021a2.43514,2.43514,0,1,0-.51814-1.26556l-6.29231,2.66835,5.35894-8.78611a2.45656,2.45656,0,1,0-1.17017-.71017l-5.45742,8.94757,1.051.641-1.05755.44848.459,1.08236-1.09534-.082L133.15107,469.092a2.44413,2.44413,0,1,0,1.365.08343l1.11694-14.91058,3.65279,8.71879a2.43824,2.43824,0,1,0,1.27578-.49366l-3.81191-9.0986,5.4223,2.83474a2.43363,2.43363,0,1,0,1.89461-1.95021Zm-7.8489-2.15439.08709-.03692-.05693.10891Z"/><path d="M109.68968,432.84592a2.41905,2.41905,0,0,0,1.20529-.65053l9.38041,5.22872.46833,1.07252,12.49045-5.4547a2.42688,2.42688,0,1,0-.65279-1.20709l-9.86463,4.308,3.97417-5.8579a2.409,2.409,0,0,0,1.20787.0652,2.46734,2.46734,0,1,0-2.3493-.81721l-4.20129,6.19267-2.11305-6.34858a2.44092,2.44092,0,1,0-1.30218.41769l1.94441,5.84192-8.31786-4.63646a2.43128,2.43128,0,1,0-1.86983,1.84576Zm12.26779,3.62851-.31434.13727-.1507-.45277Z"/><rect x="119.91548" y="437.16927" width="2.73507" height="13.85307" transform="translate(-4.12467 1.14709) rotate(-0.53284)"/><rect x="108.12369" y="453.30564" width="14.23369" height="2.73562" transform="translate(-217.04541 123.62303) rotate(-30.88416)"/><rect x="126.98558" y="444.25104" width="2.73491" height="14.01964" transform="translate(-327.0223 564.15096) rotate(-88.0458)"/><path d="M127.89332,449.64861a6.68686,6.68686,0,1,1-7.91648-5.174,6.688,6.688,0,0,1,7.91648,5.174"/><path d="M124.55287,436.46861a3.40774,3.40774,0,1,1-4.03342-2.63655,3.40788,3.40788,0,0,1,4.03342,2.63655"/><path d="M112.46972,457.62865a3.40807,3.40807,0,1,1-4.0341-2.63723,3.40886,3.40886,0,0,1,4.0341,2.63723"/><path d="M138.38142,450.86574a3.40833,3.40833,0,1,1-4.03546-2.63791,3.40862,3.40862,0,0,1,4.03546,2.63791"/></g><path d="M42.31526,484.45216H24.28157v.00482a15.97808,15.97808,0,0,1-10.65772-4.35638A15.40686,15.40686,0,0,1,8.9969,468.6338c.00049-.01306-.006-.02417-.006-.03711h.00653V425.419H8.99562c0-.01313.00665-.02436.00616-.0376a15.94576,15.94576,0,0,1,4.35254-10.9834,15.39045,15.39045,0,0,1,11.46631-4.627.97147.97147,0,0,0,.49744-.12256H71.308a4.06824,4.06824,0,0,0,3.96814,3.18561h4.071V411.3072h4.071v-1.01776h-4.071v-3.05322h4.071v-1.01776h-4.071V404.692h-4.071v.00006a4.05859,4.05859,0,0,0-3.897,2.95636H24.85774v.1228A17.46044,17.46044,0,0,0,11.908,413.01612,18.06146,18.06146,0,0,0,7.0019,425.419H6.99739v43.16272A17.44428,17.44428,0,0,0,12.242,481.54689a18.13133,18.13133,0,0,0,12.13085,4.90966c.1316,0,.22706-.0025.29041-.00439H249.68391v-2Z"/><path d="M92.14131,411.12324a5,5,0,0,0,.65008.838,4.50463,4.50463,0,0,0,.82965.68421,4.23941,4.23941,0,0,0,.9751.46216,3.51379,3.51379,0,0,0,1.10321.1712,3.69805,3.69805,0,0,0,1.676-.37653,4.10821,4.10821,0,0,0,1.29181-1.00091,4.55511,4.55511,0,0,0,.838-1.46234,5.18889,5.18889,0,0,0,.29931-1.7616,4.69721,4.69721,0,0,0-.316-1.68506,4.91872,4.91872,0,0,0-.88117-1.47974,4.35116,4.35116,0,0,0-1.35168-1.04333,3.76578,3.76578,0,0,0-1.71009-.39325,3.48963,3.48963,0,0,0-1.00091.14551,4.27021,4.27021,0,0,0-.941.41064,4.51331,4.51331,0,0,0-.838.63269,4.3176,4.3176,0,0,0-.65845.79554v-1.848h-.54706v12.53876h.58118Zm0-3.9339a1.9493,1.9493,0,0,1,.39325-.9751,3.754,3.754,0,0,1,.82965-.81225,4.61885,4.61885,0,0,1,1.044-.56446,2.92967,2.92967,0,0,1,1.0517-.21435,3.31241,3.31241,0,0,1,1.47138.334,3.92979,3.92979,0,0,1,1.19714.89789,4.22368,4.22368,0,0,1,.80389,1.30017,4.10939,4.10939,0,0,1,.291,1.52216,4.41484,4.41484,0,0,1-.25684,1.47974,4.27355,4.27355,0,0,1-.72662,1.29943,3.653,3.653,0,0,1-1.138.92432,3.2572,3.2572,0,0,1-2.58295.15381,3.843,3.843,0,0,1-.9751-.53034,4.58647,4.58647,0,0,1-.81225-.78717,4.15778,4.15778,0,0,1-.59021-.96606Z"/><path d="M102.54115,411.91877a4.41533,4.41533,0,0,0,1.36005.99182,3.88331,3.88331,0,0,0,1.68438.36823,3.93876,3.93876,0,0,0,1.69336-.36823,4.2871,4.2871,0,0,0,1.36005-.99182,4.79944,4.79944,0,0,0,1.24029-3.22461,4.79545,4.79545,0,0,0-1.24865-3.24969,4.34456,4.34456,0,0,0-1.36835-1.00092,3.91571,3.91571,0,0,0-1.6767-.36749,3.85755,3.85755,0,0,0-1.66766.36749,4.366,4.366,0,0,0-1.36005,1.00092,4.80475,4.80475,0,0,0-1.24865,3.24969,4.83665,4.83665,0,0,0,.32507,1.76233A4.512,4.512,0,0,0,102.54115,411.91877Zm-.35077-4.78924a4.30109,4.30109,0,0,1,.80389-1.30017,3.85494,3.85494,0,0,1,1.17212-.88117,3.19959,3.19959,0,0,1,1.41919-.325,3.256,3.256,0,0,1,1.42823.325,3.8755,3.8755,0,0,1,1.18041.8728,4.07031,4.07031,0,0,1,.79554,1.29114,4.35632,4.35632,0,0,1,0,3.13068,4.0781,4.0781,0,0,1-.79554,1.29107,3.86255,3.86255,0,0,1-1.18041.87214,3.28323,3.28323,0,0,1-1.445.325,3.32694,3.32694,0,0,1-1.42822-.316,3.65465,3.65465,0,0,1-1.17212-.86377,4.29777,4.29777,0,0,1-.77814-4.42175Z"/><polygon points="115.045 413.108 117.148 408.249 119.236 413.108 119.731 413.108 123.598 404.212 122.998 404.212 119.475 412.406 117.457 407.736 118.962 404.23 118.415 404.23 117.148 407.223 115.866 404.23 115.335 404.23 116.823 407.736 114.822 412.406 111.282 404.212 110.683 404.212 114.549 413.108 115.045 413.108"/><path d="M125.6761,411.90138a4.35082,4.35082,0,0,0,1.37671,1.00921,3.93883,3.93883,0,0,0,1.69342.36823,4.173,4.173,0,0,0,1.163-.1629,4.6244,4.6244,0,0,0,1.05237-.44471,3.42427,3.42427,0,0,0,.84637-.6842,2.98173,2.98173,0,0,0,.54773-.86377l-.53033-.13641a2.93889,2.93889,0,0,1-.49628.72662,3.07363,3.07363,0,0,1-.71826.57282,3.66456,3.66456,0,0,1-1.83057.49627,3.32975,3.32975,0,0,1-1.3941-.29925,3.84569,3.84569,0,0,1-1.163-.81226,4.122,4.122,0,0,1-.82129-1.22363,4.67339,4.67339,0,0,1-.38422-1.53052h7.97076a.23219.23219,0,0,0,.01673-.11969V408.66a4.75917,4.75917,0,0,0-.33344-1.779,4.63607,4.63607,0,0,0-.91522-1.46234,4.27383,4.27383,0,0,0-1.36841-.98346,4.06567,4.06567,0,0,0-1.71008-.35919,3.91683,3.91683,0,0,0-1.6767.35919,4.39947,4.39947,0,0,0-1.35095.9751,4.461,4.461,0,0,0-.90692,1.43658,4.751,4.751,0,0,0-.32507,1.76233,4.87083,4.87083,0,0,0,.3341,1.80408A4.722,4.722,0,0,0,125.6761,411.90138Zm-.30835-5.00293a4.06143,4.06143,0,0,1,.78717-1.21454,3.55368,3.55368,0,0,1,1.13733-.804,3.401,3.401,0,0,1,1.40246-.29089,3.478,3.478,0,0,1,1.40314.28259,3.63912,3.63912,0,0,1,1.154.7948,4.0183,4.0183,0,0,1,.813,1.2146,4.4812,4.4812,0,0,1,.35913,1.53955h-7.40631A4.56924,4.56924,0,0,1,125.36775,406.89845Z"/><path d="M135.53651,407.51441a3.79818,3.79818,0,0,1,1.26605-1.976,3.562,3.562,0,0,1,2.13819-.77814v-.54779h-.23108c-.09674,0-.20252.00629-.31671.01746a3.26567,3.26567,0,0,0-1.64185.70154,4.33106,4.33106,0,0,0-1.23126,1.53961v-2.25861h-.56452v8.89515h.58118Z"/><path d="M140.79774,411.90138a4.35149,4.35149,0,0,0,1.37671,1.00921,3.93883,3.93883,0,0,0,1.69342.36823,4.173,4.173,0,0,0,1.163-.1629,4.6244,4.6244,0,0,0,1.05237-.44471,3.423,3.423,0,0,0,.84638-.6842,2.98068,2.98068,0,0,0,.54773-.86377l-.53034-.13641a2.93858,2.93858,0,0,1-.49627.72662,3.07389,3.07389,0,0,1-.71827.57282,3.66456,3.66456,0,0,1-1.83056.49627,3.32979,3.32979,0,0,1-1.39411-.29925,3.84655,3.84655,0,0,1-1.163-.81226,4.12239,4.12239,0,0,1-.82129-1.22363,4.67339,4.67339,0,0,1-.38422-1.53052h7.97077a.23154.23154,0,0,0,.01672-.11969V408.66a4.76052,4.76052,0,0,0-.33337-1.779,4.6375,4.6375,0,0,0-.91529-1.46234,4.2742,4.2742,0,0,0-1.36834-.98346,4.06619,4.06619,0,0,0-1.71015-.35919,3.91679,3.91679,0,0,0-1.67669.35919,4.40106,4.40106,0,0,0-1.351.9751,4.461,4.461,0,0,0-.90692,1.43658,4.75094,4.75094,0,0,0-.325,1.76233,4.87059,4.87059,0,0,0,.334,1.80408A4.72176,4.72176,0,0,0,140.79774,411.90138Zm-.30835-5.00293a4.06143,4.06143,0,0,1,.78717-1.21454,3.55379,3.55379,0,0,1,1.13733-.804,3.40106,3.40106,0,0,1,1.40247-.29089,3.478,3.478,0,0,1,1.40313.28259,3.63916,3.63916,0,0,1,1.154.7948,4.01846,4.01846,0,0,1,.813,1.2146,4.48075,4.48075,0,0,1,.35913,1.53955h-7.40631A4.56924,4.56924,0,0,1,140.48939,406.89845Z"/><path d="M150.64985,411.8506a4.51283,4.51283,0,0,0,1.36,1.035,3.77671,3.77671,0,0,0,1.71014.39325,3.52536,3.52536,0,0,0,.99249-.14545,4.28993,4.28993,0,0,0,1.77-1.02667,4.08005,4.08005,0,0,0,.65912-.81226v1.07746a.76574.76574,0,0,0,.20465.522.66013.66013,0,0,0,.51367.23108.44965.44965,0,0,0,.13642-.01739v-.54712c-.20532,0-.30762-.126-.30762-.37653V400.621h-.58191V406.231a4.88272,4.88272,0,0,0-.62433-.82062,4.5588,4.5588,0,0,0-.82055-.69324,4.05116,4.05116,0,0,0-.98352-.46979,3.6525,3.6525,0,0,0-1.12891-.17126,3.61535,3.61535,0,0,0-1.64264.37659,4.15571,4.15571,0,0,0-1.29944,1.00921,4.69936,4.69936,0,0,0-.85541,1.47065,5.06919,5.06919,0,0,0-.30835,1.76165,4.6702,4.6702,0,0,0,.31672,1.69342A4.72532,4.72532,0,0,0,150.64985,411.8506Zm-.35083-4.6529a4.38648,4.38648,0,0,1,.71833-1.30017,3.56331,3.56331,0,0,1,1.1289-.92358,3.14828,3.14828,0,0,1,1.4881-.35077,3.0642,3.0642,0,0,1,1.05237.197,4.41708,4.41708,0,0,1,1.01758.53033,4.11217,4.11217,0,0,1,.847.7865,3.37483,3.37483,0,0,1,.55542.9668v3.06177a2.03123,2.03123,0,0,1-.38489.98346,3.494,3.494,0,0,1-.82061.82129,4.30146,4.30146,0,0,1-1.05237.55542,3.09974,3.09974,0,0,1-1.06.20532,3.30715,3.30715,0,0,1-1.47137-.33338,3.88341,3.88341,0,0,1-1.18885-.88952,4.22462,4.22462,0,0,1-.79553-1.28272,4.08927,4.08927,0,0,1-.29022-1.53125A4.46216,4.46216,0,0,1,150.299,407.1977Z"/><path d="M165.47151,411.29444a4.32876,4.32876,0,0,0,1.45331,1.41993,3.73924,3.73924,0,0,0,1.98364.56445,3.79255,3.79255,0,0,0,1.669-.37653,4.472,4.472,0,0,0,1.35865-1.00927,4.636,4.636,0,0,0,.90759-1.46228,4.73725,4.73725,0,0,0,.32434-1.73658,5.121,5.121,0,0,0-.28259-1.66766,4.82251,4.82251,0,0,0-.80316-1.47974,4.15094,4.15094,0,0,0-1.28345-1.06006,3.58976,3.58976,0,0,0-1.7359-.41064,3.52169,3.52169,0,0,0-2.0268.59857,5.775,5.775,0,0,0-1.53125,1.55634V400.621h-.58184v12.48658h.54846Zm.03338-4.19067a5.11612,5.11612,0,0,1,.59027-.941,4.671,4.671,0,0,1,.7865-.7865,3.75792,3.75792,0,0,1,.96741-.54773,3.10121,3.10121,0,0,1,1.129-.20532,3.16711,3.16711,0,0,1,1.47.34241,3.62155,3.62155,0,0,1,1.13867.90619,4.29139,4.29139,0,0,1,.73505,1.30017,4.45748,4.45748,0,0,1,.26446,1.52221,4.05748,4.05748,0,0,1-.28119,1.47974,4.305,4.305,0,0,1-.77954,1.29181,3.91888,3.91888,0,0,1-1.18878.91522,3.29663,3.29663,0,0,1-1.51318.3501,3.23278,3.23278,0,0,1-1.06073-.19629,4.11593,4.11593,0,0,1-1.05237-.54773,3.56327,3.56327,0,0,1-.81989-.81226,1.98806,1.98806,0,0,1-.38562-.97509Z"/><path d="M177.32466,414.67292c-.1698.39325-.30762.70093-.40924.92365a3.00852,3.00852,0,0,1-.24921.46142.65734.65734,0,0,1-.17957.17957,1.85988,1.85988,0,0,1-.80316.11975v.54773q.18787,0,.35913-.00836a2.38765,2.38765,0,0,0,.34241-.04315,1.22153,1.22153,0,0,0,.93964-.73566l5.08093-11.9054h-.58185l-3.52325,8.27912-3.746-8.27912h-.61664l4.055,8.89515Q177.58153,414.08274,177.32466,414.67292Z"/></g><g id="GREY"><g id="CLOUD-3" data-name="CLOUD"><path class="cls-2" d="M47.46191,349.61381c-11.01293,0-19.712-9.55728-19.712-21.41786,0-12.62848,8.53239-20.39657,19.37155-20.39657,5.28768,0,12.54166,2.04978,12.54166,6.48621v3.415H69.81437v-6.7432c0-10.325-15.18877-13.56641-22.94992-13.56641-17.579,0-30.72509,13.31276-30.72509,30.805,0,17.91936,12.63181,31.82972,31.14891,31.82972a33.57207,33.57207,0,0,0,24.40905-10.41186l-5.89209-8.02175A25.84332,25.84332,0,0,1,47.46191,349.61381Z"/><path class="cls-2" d="M91.77773,347.99146V304.21753c0-4.01247-1.79266-5.80165-5.8018-5.80165h-10.325v9.21333h3.41154a1.67508,1.67508,0,0,1,1.88295,1.87948v43.69043c0,4.096,1.70236,5.80166,5.80179,5.80166H96.98192v-9.12985H93.65373A1.70772,1.70772,0,0,1,91.77773,347.99146Z"/><path class="cls-2" d="M125.49748,314.45576c-13.22247,0-23.80464,9.47393-23.80464,22.78669,0,13.39625,10.58217,22.78322,23.80464,22.78322,13.31276,0,23.89493-9.387,23.89493-22.78322C149.39241,323.92969,138.81024,314.45576,125.49748,314.45576Zm0,36.35311c-6.99685,0-12.882-5.46132-12.882-13.56642,0-8.02174,5.88514-13.56989,12.882-13.56989,7.08715,0,12.97229,5.54815,12.97229,13.56989C138.46977,345.34755,132.58463,350.80887,125.49748,350.80887Z"/><path class="cls-2" d="M199.59323,347.99146V315.48065H188.761v19.96914c0,7.76476-4.35655,14.67813-12.208,14.67813-5.371,0-6.73987-3.58518-6.73987-8.87633V321.1991c0-3.92579-1.70223-5.71845-5.71831-5.71845h-10.325v9.21681h3.41848a1.66919,1.66919,0,0,1,1.876,1.876v16.89808c0,11.86072,5.71831,16.55413,15.01513,16.55413a16.44062,16.44062,0,0,0,15.02207-9.0465h.1667s-.08335.93794-.08335,1.96283v1.19506c0,3.0712,1.9663,4.86372,5.71831,4.86372h9.98471v-9.12985h-3.41168A1.71288,1.71288,0,0,1,199.59323,347.99146Z"/><path class="cls-2" d="M254.49817,349.87093a1.70777,1.70777,0,0,1-1.87615-1.87947V304.21753c0-4.01247-1.79252-5.80165-5.8086-5.80165h-10.325v9.21333h3.41848a1.6702,1.6702,0,0,1,1.876,1.87948v7.6778c0,1.45218.08335,2.56042.08335,2.56042h-.16669s-3.07815-5.29115-12.54847-5.29115c-11.52024,0-19.7955,8.95982-19.7955,22.78669,0,13.4796,7.59431,22.78322,19.37154,22.78322,9.98471,0,13.56989-7.08367,13.56989-7.08367h.16683v1.62235c0,2.56042,1.45219,4.43643,5.37784,4.43643h9.98471v-9.12985Zm-23.38082,1.02476c-6.39926,0-10.75581-5.37784-10.75581-13.65324,0-8.6192,4.954-13.48293,10.9225-13.48293,7.254,0,10.75595,6.65638,10.75595,13.39611C242.04,346.79973,236.74536,350.89569,231.11735,350.89569Z"/></g><g id="deNBI-3" data-name="deNBI"><path class="cls-2" d="M31.375,243.26746c7.28707,0,9.6523,4.07237,9.6523,4.07237h.1319s-.069-.85425-.069-1.97092v-5.90934a1.28509,1.28509,0,0,0-1.44266-1.44539H37.02262v-7.093H44.9678c3.0876,0,4.466,1.37841,4.466,4.46532v33.68877a1.31434,1.31434,0,0,0,1.44675,1.44539h2.55727v7.02738h-7.6807c-3.022,0-4.13661-1.44471-4.13661-3.41563v-1.24651h-.13189S38.73043,278.336,31.047,278.336c-9.06321-.00068-14.90763-7.15722-14.90763-17.53393,0-10.63777,6.36858-17.53462,15.23567-17.53462m9.91746,17.46833c0-5.1863-2.69258-10.30905-8.27731-10.30905-4.5938,0-8.40579,3.7416-8.40579,10.37534,0,6.36927,3.3507,10.50587,8.27663,10.50587,4.33342,0,8.40647-3.1491,8.40647-10.57216"/><path class="cls-2" d="M186.59718,230.92052c-3.15115,0-4.46532,1.37978-4.46532,4.46532v21.34251c0,2.69327.46061,6.56813.46061,6.56813h-.13189s-2.03585-3.87486-3.87623-6.56813l-17.66516-25.80783h-7.749v37.89234a1.2789,1.2789,0,0,1-1.375,1.40439v-.00342h-5.70363a29.51008,29.51008,0,0,1-6.60709,7.33422h17.821c3.1532,0,4.46328-1.31486,4.46328-4.466v-21.2769c0-2.69327-.45584-6.56745-.45584-6.56745h.12848a70.02847,70.02847,0,0,0,3.87623,6.56745l17.72871,25.74358h7.68412v-37.893a1.31537,1.31537,0,0,1,1.44676-1.44471h2.82243v-7.29048Z"/><path class="cls-2" d="M203.67256,238.21032h-4.2685v-7.2898h20.163c8.40511,0,14.44635,4.33547,14.44635,12.0196a10.867,10.867,0,0,1-5.64761,9.981v.12916c5.05852,1.511,7.488,6.23942,7.488,10.96716,0,9.32565-7.421,13.52991-16.09061,13.52991H208.13719c-3.08691,0-4.46463-1.31417-4.46463-4.46532V238.21032Zm15.95869,11.75581c3.61107,0,5.64829-2.62562,5.64829-5.97495s-1.96887-5.78018-5.77676-5.78018h-7.22625v11.75513Zm-5.90934,20.29281h6.69935c4.20016,0,6.5654-2.82517,6.5654-6.76359,0-3.87486-2.42947-6.698-6.5654-6.698h-8.1461v12.01618a1.31526,1.31526,0,0,0,1.44675,1.44539"/><polygon class="cls-2" points="239.669 270.259 245.018 270.259 245.018 238.21 239.669 238.21 239.669 230.921 257.826 230.921 257.826 238.21 253.16 238.21 253.16 270.259 257.826 270.259 257.826 277.549 239.669 277.549 239.669 270.259"/><path class="cls-2" d="M103.17825,277.63485l-.1278-.09431a29.50082,29.50082,0,0,1-6.59752-7.32671H71.69275c-3.935-.43054-5.58335-2.69668-6.16971-7.967H88.64033s.19614-2.10213.19614-3.08622c0-8.86777-5.25191-15.8931-14.8393-15.8931-10.04868,0-17.01318,7.2242-17.01318,17.53462,0,9.52315,4.83708,16.84507,15.93273,16.84507.54877,0,1.07977-.00684,1.6053-.01436l28.65623.00206ZM73.99785,249.7037c3.41563,0,6.17245,2.75888,6.30161,6.76359H65.78752c.91917-4.20221,3.94115-6.76359,8.21033-6.76359"/><path class="cls-2" d="M120.1429,276.253a2.41055,2.41055,0,0,0-.29239.09272l-9.12138-13.53439.58954.10086.23042-1.34723-2.66206-.45532-.60761-.628.70576-.26879-6.247-16.403a2.43341,2.43341,0,1,0-1.24562.57145l5.70639,14.9834-7.51378-7.76664a2.49154,2.49154,0,1,0-1.02915.90288l7.95109,8.21871-6.22532-1.06481c-.0086-.07717-.00835-.15362-.02457-.23116a2.46015,2.46015,0,1,0-.21181,1.57739l7.57235,1.29522-4.611,4.13939a2.42237,2.42237,0,0,0-3.47738,2.66147,2.43466,2.43466,0,1,0,4.766-.99774,2.40939,2.40939,0,0,0-.28951-.7231l4.424-3.97154,1.13054,10.39645a2.42421,2.42421,0,1,0,1.36446-.10766l-1.03669-9.5334,8.74727,12.97926a2.42224,2.42224,0,1,0,1.40742-.88641Z"/><path class="cls-2" d="M144.06662,258.03636a2.421,2.421,0,0,0-1.28079.728l-5.98578-3.12931,6.34379-2.69021a2.43514,2.43514,0,1,0-.51814-1.26556l-6.29231,2.66835,5.35894-8.7861a2.4566,2.4566,0,1,0-1.17017-.71018l-5.45742,8.94757,1.051.641-1.05755.44848.459,1.08236-1.09534-.082-1.27073,16.96373a2.44411,2.44411,0,1,0,1.365.08342l1.11694-14.91057,3.65279,8.71878a2.43826,2.43826,0,1,0,1.27578-.49365l-3.81191-9.09861,5.4223,2.83474a2.43363,2.43363,0,1,0,1.89461-1.95021Zm-7.8489-2.15439.08709-.03691-.05693.1089Z"/><path class="cls-2" d="M109.68968,236.6064a2.41913,2.41913,0,0,0,1.20529-.65053l9.38041,5.22871.46833,1.07253,12.49045-5.45471a2.42688,2.42688,0,1,0-.65279-1.20709l-9.86463,4.308,3.97417-5.85789a2.409,2.409,0,0,0,1.20787.06519,2.46734,2.46734,0,1,0-2.3493-.81721l-4.20129,6.19267-2.11305-6.34858a2.44092,2.44092,0,1,0-1.30218.41769l1.94441,5.84192-8.31786-4.63646a2.43128,2.43128,0,1,0-1.86983,1.84577Zm12.26779,3.6285-.31434.13727-.1507-.45277Z"/><rect class="cls-2" x="119.91548" y="240.92974" width="2.73507" height="13.85307" transform="translate(-2.29972 1.1386) rotate(-0.53284)"/><rect class="cls-2" x="108.12369" y="257.06611" width="14.23369" height="2.73562" transform="translate(-116.31486 95.7976) rotate(-30.88416)"/><rect class="cls-2" x="126.98558" y="248.01151" width="2.73491" height="14.01964" transform="translate(-130.89691 374.60333) rotate(-88.0458)"/><path class="cls-2" d="M127.89332,253.40908a6.68686,6.68686,0,1,1-7.91648-5.174,6.688,6.688,0,0,1,7.91648,5.174"/><path class="cls-2" d="M124.55287,240.22908a3.40774,3.40774,0,1,1-4.03342-2.63655,3.40788,3.40788,0,0,1,4.03342,2.63655"/><path class="cls-2" d="M112.46972,261.38912a3.40807,3.40807,0,1,1-4.0341-2.63723,3.40887,3.40887,0,0,1,4.0341,2.63723"/><path class="cls-2" d="M138.38142,254.62622a3.40833,3.40833,0,1,1-4.03546-2.63792,3.40861,3.40861,0,0,1,4.03546,2.63792"/></g><path class="cls-2" d="M42.31526,288.21263H24.28157v.00482a15.97808,15.97808,0,0,1-10.65772-4.35638,15.40686,15.40686,0,0,1-4.62695-11.4668c.00049-.01306-.006-.02417-.006-.03711h.00653V229.17943H8.99562c0-.01313.00665-.02436.00616-.0376a15.94577,15.94577,0,0,1,4.35254-10.9834,15.39045,15.39045,0,0,1,11.46631-4.627.97147.97147,0,0,0,.49744-.12256H71.308a4.06824,4.06824,0,0,0,3.96814,3.18561h4.071v-1.52686h4.071v-1.01776h-4.071v-3.05322h4.071v-1.01776h-4.071V208.4525h-4.071v.00006a4.05859,4.05859,0,0,0-3.897,2.95636H24.85774v.1228A17.46042,17.46042,0,0,0,11.908,216.7766,18.06143,18.06143,0,0,0,7.0019,229.17943H6.99739v43.16272A17.44428,17.44428,0,0,0,12.242,285.30736,18.13133,18.13133,0,0,0,24.37287,290.217c.1316,0,.22706-.0025.29041-.00439H249.68391v-2Z"/><path class="cls-2" d="M92.14131,214.88371a4.99961,4.99961,0,0,0,.65008.838,4.50423,4.50423,0,0,0,.82965.68421,4.23941,4.23941,0,0,0,.9751.46216,3.51379,3.51379,0,0,0,1.10321.1712,3.69805,3.69805,0,0,0,1.676-.37653,4.10821,4.10821,0,0,0,1.29181-1.00091,4.55511,4.55511,0,0,0,.838-1.46234,5.18889,5.18889,0,0,0,.29931-1.7616,4.69721,4.69721,0,0,0-.316-1.68506,4.91855,4.91855,0,0,0-.88117-1.47973,4.351,4.351,0,0,0-1.35168-1.04334,3.76578,3.76578,0,0,0-1.71009-.39325,3.48963,3.48963,0,0,0-1.00091.14551,4.27068,4.27068,0,0,0-.941.41064,4.51331,4.51331,0,0,0-.838.63269,4.31793,4.31793,0,0,0-.65845.79554v-1.848h-.54706V220.5117h.58118Zm0-3.9339a1.94927,1.94927,0,0,1,.39325-.97509,3.754,3.754,0,0,1,.82965-.81226,4.61882,4.61882,0,0,1,1.044-.56445,2.92969,2.92969,0,0,1,1.0517-.21436,3.31228,3.31228,0,0,1,1.47138.33405,3.92959,3.92959,0,0,1,1.19714.89788,4.22361,4.22361,0,0,1,.80389,1.30018,4.10934,4.10934,0,0,1,.291,1.52215,4.41484,4.41484,0,0,1-.25684,1.47974,4.27372,4.27372,0,0,1-.72662,1.29944,3.653,3.653,0,0,1-1.138.92431,3.2572,3.2572,0,0,1-2.58295.15381,3.84331,3.84331,0,0,1-.9751-.53033,4.58717,4.58717,0,0,1-.81225-.78717,4.158,4.158,0,0,1-.59021-.96607Z"/><path class="cls-2" d="M102.54115,215.67924a4.41552,4.41552,0,0,0,1.36005.99183,3.88344,3.88344,0,0,0,1.68438.36822,3.93889,3.93889,0,0,0,1.69336-.36822,4.28728,4.28728,0,0,0,1.36005-.99183,4.79944,4.79944,0,0,0,1.24029-3.22461,4.79545,4.79545,0,0,0-1.24865-3.24969,4.34472,4.34472,0,0,0-1.36835-1.00092,3.91571,3.91571,0,0,0-1.6767-.36749,3.85755,3.85755,0,0,0-1.66766.36749,4.36616,4.36616,0,0,0-1.36005,1.00092,4.80475,4.80475,0,0,0-1.24865,3.24969,4.83665,4.83665,0,0,0,.32507,1.76233A4.51189,4.51189,0,0,0,102.54115,215.67924Zm-.35077-4.78924a4.30109,4.30109,0,0,1,.80389-1.30017,3.8551,3.8551,0,0,1,1.17212-.88117,3.19959,3.19959,0,0,1,1.41919-.325,3.256,3.256,0,0,1,1.42823.325,3.87553,3.87553,0,0,1,1.18041.87281,4.07027,4.07027,0,0,1,.79554,1.29113,4.35632,4.35632,0,0,1,0,3.13068,4.07826,4.07826,0,0,1-.79554,1.29108,3.86252,3.86252,0,0,1-1.18041.87213,3.28323,3.28323,0,0,1-1.445.325,3.32694,3.32694,0,0,1-1.42822-.316,3.65465,3.65465,0,0,1-1.17212-.86377,4.29777,4.29777,0,0,1-.77814-4.42175Z"/><polygon class="cls-2" points="115.045 216.868 117.148 212.01 119.236 216.868 119.731 216.868 123.598 207.973 122.998 207.973 119.475 216.166 117.457 211.497 118.962 207.99 118.415 207.99 117.148 210.984 115.866 207.99 115.335 207.99 116.823 211.497 114.822 216.166 111.282 207.973 110.683 207.973 114.549 216.868 115.045 216.868"/><path class="cls-2" d="M125.6761,215.66185a4.351,4.351,0,0,0,1.37671,1.00922,3.939,3.939,0,0,0,1.69342.36822,4.173,4.173,0,0,0,1.163-.1629,4.62482,4.62482,0,0,0,1.05237-.4447,3.4243,3.4243,0,0,0,.84637-.68421,2.98173,2.98173,0,0,0,.54773-.86377l-.53033-.13641a2.93889,2.93889,0,0,1-.49628.72662,3.07363,3.07363,0,0,1-.71826.57282,3.66456,3.66456,0,0,1-1.83057.49627,3.32959,3.32959,0,0,1-1.3941-.29925,3.84569,3.84569,0,0,1-1.163-.81226,4.122,4.122,0,0,1-.82129-1.22363,4.67339,4.67339,0,0,1-.38422-1.53052h7.97076a.23219.23219,0,0,0,.01673-.11969v-.13714a4.75919,4.75919,0,0,0-.33344-1.779,4.63607,4.63607,0,0,0-.91522-1.46234,4.27383,4.27383,0,0,0-1.36841-.98346,4.06567,4.06567,0,0,0-1.71008-.35919,3.91683,3.91683,0,0,0-1.6767.35919,4.39947,4.39947,0,0,0-1.35095.9751,4.461,4.461,0,0,0-.90692,1.43659,4.75092,4.75092,0,0,0-.32507,1.76232,4.87083,4.87083,0,0,0,.3341,1.80408A4.72185,4.72185,0,0,0,125.6761,215.66185Zm-.30835-5.00293a4.06143,4.06143,0,0,1,.78717-1.21454,3.5535,3.5535,0,0,1,1.13733-.80395,3.40086,3.40086,0,0,1,1.40246-.2909,3.478,3.478,0,0,1,1.40314.2826,3.63892,3.63892,0,0,1,1.154.79479,4.0183,4.0183,0,0,1,.813,1.2146,4.48121,4.48121,0,0,1,.35913,1.53956h-7.40631A4.56924,4.56924,0,0,1,125.36775,210.65892Z"/><path class="cls-2" d="M135.53651,211.27489a3.79817,3.79817,0,0,1,1.26605-1.976,3.56189,3.56189,0,0,1,2.13819-.77813V207.973h-.23108c-.09674,0-.20252.00628-.31671.01745a3.26567,3.26567,0,0,0-1.64185.70154,4.33115,4.33115,0,0,0-1.23126,1.53961V207.973h-.56452v8.89514h.58118Z"/><path class="cls-2" d="M140.79774,215.66185a4.35167,4.35167,0,0,0,1.37671,1.00922,3.939,3.939,0,0,0,1.69342.36822,4.173,4.173,0,0,0,1.163-.1629,4.62482,4.62482,0,0,0,1.05237-.4447,3.42307,3.42307,0,0,0,.84638-.68421,2.98068,2.98068,0,0,0,.54773-.86377l-.53034-.13641a2.93858,2.93858,0,0,1-.49627.72662,3.07389,3.07389,0,0,1-.71827.57282,3.66456,3.66456,0,0,1-1.83056.49627,3.32964,3.32964,0,0,1-1.39411-.29925,3.84655,3.84655,0,0,1-1.163-.81226,4.12239,4.12239,0,0,1-.82129-1.22363,4.67339,4.67339,0,0,1-.38422-1.53052h7.97077a.23154.23154,0,0,0,.01672-.11969v-.13714a4.76053,4.76053,0,0,0-.33337-1.779,4.6375,4.6375,0,0,0-.91529-1.46234,4.2742,4.2742,0,0,0-1.36834-.98346,4.06619,4.06619,0,0,0-1.71015-.35919,3.91679,3.91679,0,0,0-1.67669.35919,4.40106,4.40106,0,0,0-1.351.9751,4.461,4.461,0,0,0-.90692,1.43659,4.75089,4.75089,0,0,0-.325,1.76232,4.87059,4.87059,0,0,0,.334,1.80408A4.72165,4.72165,0,0,0,140.79774,215.66185Zm-.30835-5.00293a4.06143,4.06143,0,0,1,.78717-1.21454,3.55361,3.55361,0,0,1,1.13733-.80395,3.4009,3.4009,0,0,1,1.40247-.2909,3.478,3.478,0,0,1,1.40313.2826,3.639,3.639,0,0,1,1.154.79479,4.01846,4.01846,0,0,1,.813,1.2146,4.48075,4.48075,0,0,1,.35913,1.53956h-7.40631A4.56924,4.56924,0,0,1,140.48939,210.65892Z"/><path class="cls-2" d="M150.64985,215.61107a4.51267,4.51267,0,0,0,1.36,1.035,3.77671,3.77671,0,0,0,1.71014.39325,3.52536,3.52536,0,0,0,.99249-.14545,4.28993,4.28993,0,0,0,1.77-1.02667,4.08,4.08,0,0,0,.65912-.81225v1.07745a.76574.76574,0,0,0,.20465.522.66013.66013,0,0,0,.51367.23108.44934.44934,0,0,0,.13642-.01739V216.321c-.20532,0-.30762-.126-.30762-.37653V204.38151h-.58191v5.60993a4.88272,4.88272,0,0,0-.62433-.82062,4.5588,4.5588,0,0,0-.82055-.69324,4.05076,4.05076,0,0,0-.98352-.46978,3.65221,3.65221,0,0,0-1.12891-.17127,3.61535,3.61535,0,0,0-1.64264.37659,4.15559,4.15559,0,0,0-1.29944,1.00922,4.69919,4.69919,0,0,0-.85541,1.47064,5.06923,5.06923,0,0,0-.30835,1.76165,4.67025,4.67025,0,0,0,.31672,1.69343A4.72539,4.72539,0,0,0,150.64985,215.61107Zm-.35083-4.6529a4.3866,4.3866,0,0,1,.71833-1.30017,3.56344,3.56344,0,0,1,1.1289-.92358,3.14828,3.14828,0,0,1,1.4881-.35077,3.0642,3.0642,0,0,1,1.05237.197,4.41673,4.41673,0,0,1,1.01758.53034,4.11185,4.11185,0,0,1,.847.78649,3.37483,3.37483,0,0,1,.55542.9668V213.926a2.03115,2.03115,0,0,1-.38489.98346,3.494,3.494,0,0,1-.82061.82129,4.30146,4.30146,0,0,1-1.05237.55542,3.09974,3.09974,0,0,1-1.06.20532,3.30727,3.30727,0,0,1-1.47137-.33337,3.8836,3.8836,0,0,1-1.18885-.88953,4.22462,4.22462,0,0,1-.79553-1.28272,4.08923,4.08923,0,0,1-.29022-1.53125A4.46216,4.46216,0,0,1,150.299,210.95817Z"/><path class="cls-2" d="M165.47151,215.05492a4.32883,4.32883,0,0,0,1.45331,1.41992,3.73924,3.73924,0,0,0,1.98364.56445,3.79255,3.79255,0,0,0,1.669-.37653,4.472,4.472,0,0,0,1.35865-1.00927,4.636,4.636,0,0,0,.90759-1.46228,4.73725,4.73725,0,0,0,.32434-1.73658,5.121,5.121,0,0,0-.28259-1.66766,4.82251,4.82251,0,0,0-.80316-1.47974,4.15091,4.15091,0,0,0-1.28345-1.06005,3.58976,3.58976,0,0,0-1.7359-.41065,3.52169,3.52169,0,0,0-2.0268.59857,5.775,5.775,0,0,0-1.53125,1.55634v-5.60993h-.58184v12.48658h.54846Zm.03338-4.19068a5.11612,5.11612,0,0,1,.59027-.941,4.67132,4.67132,0,0,1,.7865-.7865,3.75792,3.75792,0,0,1,.96741-.54773,3.10121,3.10121,0,0,1,1.129-.20532,3.16723,3.16723,0,0,1,1.47.34241,3.62155,3.62155,0,0,1,1.13867.90619,4.29139,4.29139,0,0,1,.73505,1.30017,4.45752,4.45752,0,0,1,.26446,1.52221,4.05744,4.05744,0,0,1-.28119,1.47974,4.305,4.305,0,0,1-.77954,1.29181,3.91872,3.91872,0,0,1-1.18878.91522,3.29663,3.29663,0,0,1-1.51318.3501,3.23278,3.23278,0,0,1-1.06073-.19629,4.11593,4.11593,0,0,1-1.05237-.54773,3.56343,3.56343,0,0,1-.81989-.81225,1.9881,1.9881,0,0,1-.38562-.9751Z"/><path class="cls-2" d="M177.32466,218.43339c-.1698.39325-.30762.70093-.40924.92365a3.00926,3.00926,0,0,1-.24921.46143.65743.65743,0,0,1-.17957.17956,1.85988,1.85988,0,0,1-.80316.11975v.54773q.18787,0,.35913-.00836a2.38765,2.38765,0,0,0,.34241-.04315,1.22151,1.22151,0,0,0,.93964-.73566l5.08093-11.90539h-.58185l-3.52325,8.27911-3.746-8.27911h-.61664l4.055,8.89514Q177.58153,217.84321,177.32466,218.43339Z"/></g><g id="COLOR"><g id="CLOUD-4" data-name="CLOUD"><path class="cls-3" d="M47.46191,153.37428c-11.01293,0-19.712-9.55728-19.712-21.41786,0-12.62848,8.53239-20.39657,19.37155-20.39657,5.28768,0,12.54166,2.04978,12.54166,6.48621v3.415H69.81437v-6.7432c0-10.325-15.18877-13.56641-22.94992-13.56641-17.579,0-30.72509,13.31276-30.72509,30.805,0,17.91936,12.63181,31.82972,31.14891,31.82972a33.57207,33.57207,0,0,0,24.40905-10.41186l-5.89209-8.02175A25.84332,25.84332,0,0,1,47.46191,153.37428Z"/><path class="cls-3" d="M91.77773,151.75193V107.978c0-4.01247-1.79266-5.80166-5.8018-5.80166h-10.325v9.21333h3.41154a1.67508,1.67508,0,0,1,1.88295,1.87948V156.9596c0,4.096,1.70236,5.80165,5.80179,5.80165H96.98192v-9.12984H93.65373A1.70772,1.70772,0,0,1,91.77773,151.75193Z"/><path class="cls-3" d="M125.49748,118.21623c-13.22247,0-23.80464,9.47393-23.80464,22.78669,0,13.39625,10.58217,22.78322,23.80464,22.78322,13.31276,0,23.89493-9.387,23.89493-22.78322C149.39241,127.69016,138.81024,118.21623,125.49748,118.21623Zm0,36.35311c-6.99685,0-12.882-5.46132-12.882-13.56642,0-8.02174,5.88514-13.56988,12.882-13.56988,7.08715,0,12.97229,5.54814,12.97229,13.56988C138.46977,149.108,132.58463,154.56934,125.49748,154.56934Z"/><path class="cls-3" d="M199.59323,151.75193V119.24112H188.761v19.96915c0,7.76475-4.35655,14.67812-12.208,14.67812-5.371,0-6.73987-3.58518-6.73987-8.87633V124.95957c0-3.92579-1.70223-5.71845-5.71831-5.71845h-10.325v9.21681h3.41848a1.66919,1.66919,0,0,1,1.876,1.876V147.232c0,11.86072,5.71831,16.55413,15.01513,16.55413a16.44062,16.44062,0,0,0,15.02207-9.0465h.1667s-.08335.93794-.08335,1.96283v1.19506c0,3.0712,1.9663,4.86372,5.71831,4.86372h9.98471v-9.12984h-3.41168A1.71288,1.71288,0,0,1,199.59323,151.75193Z"/><path class="cls-3" d="M254.49817,153.63141a1.70777,1.70777,0,0,1-1.87615-1.87948V107.978c0-4.01247-1.79252-5.80166-5.8086-5.80166h-10.325v9.21333h3.41848a1.6702,1.6702,0,0,1,1.876,1.87948v7.6778c0,1.45219.08335,2.56043.08335,2.56043h-.16669s-3.07815-5.29116-12.54847-5.29116c-11.52024,0-19.7955,8.95982-19.7955,22.78669,0,13.4796,7.59431,22.78322,19.37154,22.78322,9.98471,0,13.56989-7.08367,13.56989-7.08367h.16683v1.62235c0,2.56043,1.45219,4.43643,5.37784,4.43643h9.98471v-9.12984Zm-23.38082,1.02475c-6.39926,0-10.75581-5.37784-10.75581-13.65324,0-8.6192,4.954-13.48293,10.9225-13.48293,7.254,0,10.75595,6.65639,10.75595,13.39611C242.04,150.5602,236.74536,154.65616,231.11735,154.65616Z"/></g><g id="deNBI-4" data-name="deNBI"><path class="cls-4" d="M31.375,47.02793c7.28707,0,9.6523,4.07237,9.6523,4.07237h.1319s-.069-.85425-.069-1.97092V43.22a1.28509,1.28509,0,0,0-1.44266-1.44538H37.02262v-7.093H44.9678c3.0876,0,4.466,1.37842,4.466,4.46532V72.83576a1.31434,1.31434,0,0,0,1.44675,1.44539h2.55727v7.02738h-7.6807c-3.022,0-4.13661-1.4447-4.13661-3.41562V76.64639h-.13189s-2.7582,5.4501-10.44164,5.4501c-9.06321-.00069-14.90763-7.15723-14.90763-17.53394,0-10.63777,6.36858-17.53462,15.23567-17.53462m9.91746,17.46833c0-5.1863-2.69258-10.30905-8.27731-10.30905-4.5938,0-8.40579,3.7416-8.40579,10.37534,0,6.36927,3.3507,10.50587,8.27663,10.50587,4.33342,0,8.40647-3.14909,8.40647-10.57216"/><path class="cls-3" d="M186.59718,34.681c-3.15115,0-4.46532,1.37978-4.46532,4.46532V60.48882c0,2.69327.46061,6.56813.46061,6.56813h-.13189s-2.03585-3.87486-3.87623-6.56813L160.91919,34.681h-7.749V72.57334a1.2789,1.2789,0,0,1-1.375,1.40438V73.9743h-5.70363a29.50991,29.50991,0,0,1-6.60709,7.33422h17.821c3.1532,0,4.46328-1.31486,4.46328-4.466V55.56562c0-2.69327-.45584-6.56745-.45584-6.56745h.12848a70.02847,70.02847,0,0,0,3.87623,6.56745l17.72871,25.74359h7.68412v-37.893a1.31537,1.31537,0,0,1,1.44676-1.4447h2.82243V34.681Z"/><path class="cls-3" d="M203.67256,41.97079h-4.2685V34.681h20.163c8.40511,0,14.44635,4.33547,14.44635,12.0196a10.867,10.867,0,0,1-5.64761,9.981v.12916c5.05852,1.511,7.488,6.23942,7.488,10.96717,0,9.32564-7.421,13.5299-16.09061,13.5299H208.13719c-3.08691,0-4.46463-1.31417-4.46463-4.46532V41.97079ZM219.63125,53.7266c3.61107,0,5.64829-2.62562,5.64829-5.97495s-1.96887-5.78017-5.77676-5.78017h-7.22625V53.7266Zm-5.90934,20.29281h6.69935c4.20016,0,6.5654-2.82517,6.5654-6.76359,0-3.87486-2.42947-6.698-6.5654-6.698h-8.1461V72.574a1.31526,1.31526,0,0,0,1.44675,1.44539"/><polygon class="cls-3" points="239.669 74.019 245.018 74.019 245.018 41.971 239.669 41.971 239.669 34.681 257.826 34.681 257.826 41.971 253.16 41.971 253.16 74.019 257.826 74.019 257.826 81.309 239.669 81.309 239.669 74.019"/><path class="cls-4" d="M103.17825,81.39532l-.1278-.09431a29.50082,29.50082,0,0,1-6.59752-7.32671H71.69275c-3.935-.43054-5.58335-2.69668-6.16971-7.967H88.64033s.19614-2.10213.19614-3.08622c0-8.86777-5.25191-15.8931-14.8393-15.8931-10.04868,0-17.01318,7.2242-17.01318,17.53462,0,9.52315,4.83708,16.84507,15.93273,16.84507.54877,0,1.07977-.00684,1.6053-.01436l28.65623.00206ZM73.99785,53.46417c3.41563,0,6.17245,2.75888,6.30161,6.76359H65.78752c.91917-4.20221,3.94115-6.76359,8.21033-6.76359"/><path class="cls-2" d="M120.1429,80.01348a2.40883,2.40883,0,0,0-.29239.09273l-9.12138-13.5344.58954.10086.23042-1.34723-2.66206-.45532-.60761-.62805.70576-.26879-6.247-16.403a2.43341,2.43341,0,1,0-1.24562.57145l5.70639,14.9834-7.51378-7.76664a2.49154,2.49154,0,1,0-1.02915.90288l7.95109,8.21871-6.22532-1.06481c-.0086-.07716-.00835-.15362-.02457-.23116a2.46015,2.46015,0,1,0-.21181,1.57739l7.57235,1.29522-4.611,4.13939a2.42237,2.42237,0,0,0-3.47738,2.66147,2.43466,2.43466,0,1,0,4.766-.99773,2.40934,2.40934,0,0,0-.28951-.72311l4.424-3.97154,1.13054,10.39645a2.42423,2.42423,0,1,0,1.36446-.10765l-1.03669-9.53341,8.74727,12.97926a2.42224,2.42224,0,1,0,1.40742-.88641Z"/><path class="cls-2" d="M144.06662,61.79683a2.421,2.421,0,0,0-1.28079.728l-5.98578-3.12931,6.34379-2.69021a2.43514,2.43514,0,1,0-.51814-1.26556l-6.29231,2.66835,5.35894-8.7861a2.4566,2.4566,0,1,0-1.17017-.71018l-5.45742,8.94757,1.051.641-1.05755.44848.459,1.08237-1.09534-.08205-1.27073,16.96373a2.44411,2.44411,0,1,0,1.365.08342l1.11694-14.91057,3.65279,8.71878a2.43826,2.43826,0,1,0,1.27578-.49365l-3.81191-9.09861L142.172,63.747a2.43363,2.43363,0,1,0,1.89461-1.95021Zm-7.8489-2.15439.08709-.03691-.05693.10891Z"/><path class="cls-2" d="M109.68968,40.36687a2.41913,2.41913,0,0,0,1.20529-.65053l9.38041,5.22872.46833,1.07252,12.49045-5.45471a2.42688,2.42688,0,1,0-.65279-1.20708l-9.86463,4.308,3.97417-5.85789a2.409,2.409,0,0,0,1.20787.06519,2.46732,2.46732,0,1,0-2.3493-.8172l-4.20129,6.19266L119.23514,36.898a2.4409,2.4409,0,1,0-1.30218.4177l1.94441,5.84191-8.31786-4.63646a2.43128,2.43128,0,1,0-1.86983,1.84577Zm12.26779,3.6285-.31434.13728-.1507-.45278Z"/><rect class="cls-5" x="119.91548" y="44.69021" width="2.73507" height="13.85307" transform="translate(-0.47477 1.13012) rotate(-0.53284)"/><rect class="cls-5" x="108.12369" y="60.82659" width="14.23369" height="2.73562" transform="translate(-15.58431 67.97218) rotate(-30.88416)"/><rect class="cls-5" x="126.98558" y="51.77198" width="2.73491" height="14.01964" transform="translate(65.22849 185.05569) rotate(-88.0458)"/><path class="cls-6" d="M127.89332,57.16956a6.68686,6.68686,0,1,1-7.91648-5.174,6.688,6.688,0,0,1,7.91648,5.174"/><path class="cls-5" d="M124.55287,43.98955a3.40774,3.40774,0,1,1-4.03342-2.63655,3.4079,3.4079,0,0,1,4.03342,2.63655"/><path class="cls-5" d="M112.46972,65.14959a3.40807,3.40807,0,1,1-4.0341-2.63723,3.40887,3.40887,0,0,1,4.0341,2.63723"/><path class="cls-5" d="M138.38142,58.38669a3.40833,3.40833,0,1,1-4.03546-2.63792,3.40861,3.40861,0,0,1,4.03546,2.63792"/></g><path class="cls-2" d="M42.31526,91.9731H24.28157v.00482a15.97808,15.97808,0,0,1-10.65772-4.35638A15.40685,15.40685,0,0,1,8.9969,76.15474c.00049-.01306-.006-.02417-.006-.03711h.00653V32.9399H8.99562c0-.01312.00665-.02435.00616-.0376a15.94577,15.94577,0,0,1,4.35254-10.9834,15.39045,15.39045,0,0,1,11.46631-4.627.97137.97137,0,0,0,.49744-.12256H71.308A4.06824,4.06824,0,0,0,75.27613,20.355h4.071V18.82814h4.071V17.81038h-4.071V14.75716h4.071V13.7394h-4.071V12.213h-4.071V12.213a4.05859,4.05859,0,0,0-3.897,2.95636H24.85774v.1228A17.46042,17.46042,0,0,0,11.908,20.53707,18.06146,18.06146,0,0,0,7.0019,32.9399H6.99739V76.10262A17.44428,17.44428,0,0,0,12.242,89.06783,18.13131,18.13131,0,0,0,24.37287,93.9775c.1316,0,.22706-.00251.29041-.0044H249.68391v-2Z"/><path class="cls-2" d="M92.14131,18.64418a5.00008,5.00008,0,0,0,.65008.838,4.50417,4.50417,0,0,0,.82965.6842,4.23941,4.23941,0,0,0,.9751.46216,3.51379,3.51379,0,0,0,1.10321.1712,3.698,3.698,0,0,0,1.676-.37652,4.10824,4.10824,0,0,0,1.29181-1.00092,4.55511,4.55511,0,0,0,.838-1.46234,5.18889,5.18889,0,0,0,.29931-1.7616,4.69725,4.69725,0,0,0-.316-1.68506,4.91855,4.91855,0,0,0-.88117-1.47973,4.35118,4.35118,0,0,0-1.35168-1.04334,3.76578,3.76578,0,0,0-1.71009-.39325,3.48963,3.48963,0,0,0-1.00091.14551,4.27025,4.27025,0,0,0-.941.41065,4.51243,4.51243,0,0,0-.838.63269,4.31754,4.31754,0,0,0-.65845.79553v-1.848h-.54706V24.27217h.58118Zm0-3.9339a1.94927,1.94927,0,0,1,.39325-.97509,3.754,3.754,0,0,1,.82965-.81226,4.61882,4.61882,0,0,1,1.044-.56445,2.92969,2.92969,0,0,1,1.0517-.21436,3.31228,3.31228,0,0,1,1.47138.33405,3.92946,3.92946,0,0,1,1.19714.89789,4.22344,4.22344,0,0,1,.80389,1.30017,4.10934,4.10934,0,0,1,.291,1.52215,4.41484,4.41484,0,0,1-.25684,1.47974,4.2736,4.2736,0,0,1-.72662,1.29944,3.653,3.653,0,0,1-1.138.92431,3.2572,3.2572,0,0,1-2.58295.15381,3.84331,3.84331,0,0,1-.9751-.53033,4.58717,4.58717,0,0,1-.81225-.78717,4.158,4.158,0,0,1-.59021-.96607Z"/><path class="cls-2" d="M102.54115,19.43972a4.41549,4.41549,0,0,0,1.36005.99182,3.88344,3.88344,0,0,0,1.68438.36822,3.93889,3.93889,0,0,0,1.69336-.36822,4.28726,4.28726,0,0,0,1.36005-.99182,4.79944,4.79944,0,0,0,1.24029-3.22461,4.79545,4.79545,0,0,0-1.24865-3.2497,4.34454,4.34454,0,0,0-1.36835-1.00091,3.91558,3.91558,0,0,0-1.6767-.3675,3.85741,3.85741,0,0,0-1.66766.3675,4.366,4.366,0,0,0-1.36005,1.00091,4.80475,4.80475,0,0,0-1.24865,3.2497,4.83669,4.83669,0,0,0,.32507,1.76233A4.5121,4.5121,0,0,0,102.54115,19.43972Zm-.35077-4.78925a4.30109,4.30109,0,0,1,.80389-1.30017,3.8551,3.8551,0,0,1,1.17212-.88117,3.19959,3.19959,0,0,1,1.41919-.325,3.256,3.256,0,0,1,1.42823.325,3.87553,3.87553,0,0,1,1.18041.87281,4.0702,4.0702,0,0,1,.79554,1.29114,4.35629,4.35629,0,0,1,0,3.13067,4.07815,4.07815,0,0,1-.79554,1.29108,3.86235,3.86235,0,0,1-1.18041.87213,3.28323,3.28323,0,0,1-1.445.325,3.32694,3.32694,0,0,1-1.42822-.316,3.6545,3.6545,0,0,1-1.17212-.86377,4.29777,4.29777,0,0,1-.77814-4.42175Z"/><polygon class="cls-2" points="115.045 20.629 117.148 15.77 119.236 20.629 119.731 20.629 123.598 11.733 122.998 11.733 119.475 19.927 117.457 15.257 118.962 11.751 118.415 11.751 117.148 14.744 115.866 11.751 115.335 11.751 116.823 15.257 114.822 19.927 111.282 11.733 110.683 11.733 114.549 20.629 115.045 20.629"/><path class="cls-2" d="M125.6761,19.42232a4.351,4.351,0,0,0,1.37671,1.00922,3.939,3.939,0,0,0,1.69342.36822,4.173,4.173,0,0,0,1.163-.1629,4.62437,4.62437,0,0,0,1.05237-.4447,3.4243,3.4243,0,0,0,.84637-.68421,2.98173,2.98173,0,0,0,.54773-.86377l-.53033-.13641a2.93889,2.93889,0,0,1-.49628.72662,3.07337,3.07337,0,0,1-.71826.57282,3.66471,3.66471,0,0,1-1.83057.49628,3.3296,3.3296,0,0,1-1.3941-.29926,3.84569,3.84569,0,0,1-1.163-.81226,4.12188,4.12188,0,0,1-.82129-1.22363,4.67333,4.67333,0,0,1-.38422-1.53052h7.97076a.23219.23219,0,0,0,.01673-.11969V16.181a4.75914,4.75914,0,0,0-.33344-1.779,4.636,4.636,0,0,0-.91522-1.46235,4.274,4.274,0,0,0-1.36841-.98345,4.06552,4.06552,0,0,0-1.71008-.3592,3.91669,3.91669,0,0,0-1.6767.3592,4.39944,4.39944,0,0,0-1.35095.97509,4.461,4.461,0,0,0-.90692,1.43659,4.75094,4.75094,0,0,0-.32507,1.76233,4.87081,4.87081,0,0,0,.3341,1.80407A4.72185,4.72185,0,0,0,125.6761,19.42232Zm-.30835-5.00293a4.06143,4.06143,0,0,1,.78717-1.21454,3.5535,3.5535,0,0,1,1.13733-.804,3.401,3.401,0,0,1,1.40246-.2909,3.478,3.478,0,0,1,1.40314.2826,3.63879,3.63879,0,0,1,1.154.7948,4.01818,4.01818,0,0,1,.813,1.2146,4.4811,4.4811,0,0,1,.35913,1.53955h-7.40631A4.56924,4.56924,0,0,1,125.36775,14.41939Z"/><path class="cls-2" d="M135.53651,15.03536a3.79817,3.79817,0,0,1,1.26605-1.976,3.562,3.562,0,0,1,2.13819-.77813v-.54779h-.23108c-.09674,0-.20252.00628-.31671.01745a3.26576,3.26576,0,0,0-1.64185.70154,4.33123,4.33123,0,0,0-1.23126,1.53961v-2.2586h-.56452v8.89514h.58118Z"/><path class="cls-2" d="M140.79774,19.42232a4.35167,4.35167,0,0,0,1.37671,1.00922,3.939,3.939,0,0,0,1.69342.36822,4.173,4.173,0,0,0,1.163-.1629,4.62437,4.62437,0,0,0,1.05237-.4447,3.42307,3.42307,0,0,0,.84638-.68421,2.98068,2.98068,0,0,0,.54773-.86377l-.53034-.13641a2.93858,2.93858,0,0,1-.49627.72662,3.07363,3.07363,0,0,1-.71827.57282,3.66471,3.66471,0,0,1-1.83056.49628,3.32965,3.32965,0,0,1-1.39411-.29926,3.84655,3.84655,0,0,1-1.163-.81226,4.12226,4.12226,0,0,1-.82129-1.22363,4.67333,4.67333,0,0,1-.38422-1.53052h7.97077a.23154.23154,0,0,0,.01672-.11969V16.181a4.76048,4.76048,0,0,0-.33337-1.779,4.63743,4.63743,0,0,0-.91529-1.46235,4.27433,4.27433,0,0,0-1.36834-.98345,4.066,4.066,0,0,0-1.71015-.3592,3.91665,3.91665,0,0,0-1.67669.3592,4.401,4.401,0,0,0-1.351.97509,4.461,4.461,0,0,0-.90692,1.43659,4.75091,4.75091,0,0,0-.325,1.76233,4.87058,4.87058,0,0,0,.334,1.80407A4.72165,4.72165,0,0,0,140.79774,19.42232Zm-.30835-5.00293a4.06143,4.06143,0,0,1,.78717-1.21454,3.55361,3.55361,0,0,1,1.13733-.804,3.40106,3.40106,0,0,1,1.40247-.2909,3.478,3.478,0,0,1,1.40313.2826,3.63883,3.63883,0,0,1,1.154.7948,4.01834,4.01834,0,0,1,.813,1.2146,4.48064,4.48064,0,0,1,.35913,1.53955h-7.40631A4.56924,4.56924,0,0,1,140.48939,14.41939Z"/><path class="cls-2" d="M150.64985,19.37154a4.51267,4.51267,0,0,0,1.36,1.035,3.77671,3.77671,0,0,0,1.71014.39325,3.52535,3.52535,0,0,0,.99249-.14544,4.2901,4.2901,0,0,0,1.77-1.02668,4.07971,4.07971,0,0,0,.65912-.81225v1.07745a.76573.76573,0,0,0,.20465.522.66013.66013,0,0,0,.51367.23108.44934.44934,0,0,0,.13642-.01739v-.54712c-.20532,0-.30762-.126-.30762-.37653V8.142h-.58191v5.60992a4.88272,4.88272,0,0,0-.62433-.82062,4.55834,4.55834,0,0,0-.82055-.69323,4.05042,4.05042,0,0,0-.98352-.46979,3.65221,3.65221,0,0,0-1.12891-.17127,3.61535,3.61535,0,0,0-1.64264.37659,4.15559,4.15559,0,0,0-1.29944,1.00922,4.69919,4.69919,0,0,0-.85541,1.47064,5.06925,5.06925,0,0,0-.30835,1.76166,4.67024,4.67024,0,0,0,.31672,1.69342A4.72528,4.72528,0,0,0,150.64985,19.37154Zm-.35083-4.65289a4.38635,4.38635,0,0,1,.71833-1.30017,3.56347,3.56347,0,0,1,1.1289-.92359,3.14828,3.14828,0,0,1,1.4881-.35077,3.0642,3.0642,0,0,1,1.05237.197,4.41673,4.41673,0,0,1,1.01758.53034,4.11162,4.11162,0,0,1,.847.7865,3.37478,3.37478,0,0,1,.55542.96679v3.06177a2.03115,2.03115,0,0,1-.38489.98346,3.494,3.494,0,0,1-.82061.82129,4.30077,4.30077,0,0,1-1.05237.55542,3.0995,3.0995,0,0,1-1.06.20532,3.30714,3.30714,0,0,1-1.47137-.33337,3.8836,3.8836,0,0,1-1.18885-.88953,4.22469,4.22469,0,0,1-.79553-1.28271,4.08931,4.08931,0,0,1-.29022-1.53125A4.46212,4.46212,0,0,1,150.299,14.71865Z"/><path class="cls-2" d="M165.47151,18.81539a4.32874,4.32874,0,0,0,1.45331,1.41992,3.73924,3.73924,0,0,0,1.98364.56445,3.79254,3.79254,0,0,0,1.669-.37652,4.472,4.472,0,0,0,1.35865-1.00928,4.63591,4.63591,0,0,0,.90759-1.46228,4.73723,4.73723,0,0,0,.32434-1.73657,5.12106,5.12106,0,0,0-.28259-1.66767,4.82235,4.82235,0,0,0-.80316-1.47973,4.1508,4.1508,0,0,0-1.28345-1.06006,3.58976,3.58976,0,0,0-1.7359-.41065,3.52162,3.52162,0,0,0-2.0268.59858,5.77493,5.77493,0,0,0-1.53125,1.55633V8.142h-.58184V20.62856h.54846Zm.03338-4.19068a5.11645,5.11645,0,0,1,.59027-.941,4.67132,4.67132,0,0,1,.7865-.7865,3.75792,3.75792,0,0,1,.96741-.54773,3.10121,3.10121,0,0,1,1.129-.20532,3.16723,3.16723,0,0,1,1.47.34241,3.62169,3.62169,0,0,1,1.13867.90619,4.29151,4.29151,0,0,1,.73505,1.30017,4.45754,4.45754,0,0,1,.26446,1.52222,4.05743,4.05743,0,0,1-.28119,1.47973,4.30489,4.30489,0,0,1-.77954,1.29181,3.91856,3.91856,0,0,1-1.18878.91522,3.29663,3.29663,0,0,1-1.51318.3501,3.23278,3.23278,0,0,1-1.06073-.19629,4.11593,4.11593,0,0,1-1.05237-.54773,3.56343,3.56343,0,0,1-.81989-.81225,1.9881,1.9881,0,0,1-.38562-.9751Z"/><path class="cls-2" d="M177.32466,22.19387c-.1698.39325-.30762.70092-.40924.92364a3.00825,3.00825,0,0,1-.24921.46143.65743.65743,0,0,1-.17957.17956,1.85988,1.85988,0,0,1-.80316.11975V24.426q.18787,0,.35913-.00836a2.38623,2.38623,0,0,0,.34241-.04315,1.22151,1.22151,0,0,0,.93964-.73566l5.08093-11.90539h-.58185l-3.52325,8.27911-3.746-8.27911h-.61664l4.055,8.89514Q177.58153,21.60368,177.32466,22.19387Z"/></g></svg>