<svg id="Ebene_1" data-name="Ebene 1" xmlns="http://www.w3.org/2000/svg" viewBox="0 0 273.96571 784.95811"><defs><style>.cls-1{fill:#fff;}.cls-2{fill:#9d9d9c;}.cls-3{fill:#00adee;}.cls-4{fill:#005aa9;}.cls-5{fill:#58595b;}.cls-6{fill:#eb008b;}</style></defs><rect id="BACKGROUND" y="588.71858" width="273.96571" height="196.23953"/><g id="COLOR"><g id="CLOUD"><path d="M47.46191,545.85334c-11.01293,0-19.712-9.55728-19.712-21.41786,0-12.62848,8.53239-20.39657,19.37155-20.39657,5.28768,0,12.54166,2.04978,12.54166,6.48621v3.415H69.81437v-6.7432c0-10.325-15.18877-13.56642-22.94992-13.56642-17.579,0-30.72509,13.31277-30.72509,30.805,0,17.91936,12.63181,31.82972,31.14891,31.82972a33.57207,33.57207,0,0,0,24.40905-10.41186l-5.89209-8.02175A25.84332,25.84332,0,0,1,47.46191,545.85334Z"/><path d="M91.77773,544.231V500.45706c0-4.01247-1.79266-5.80165-5.8018-5.80165h-10.325v9.21333h3.41154a1.67508,1.67508,0,0,1,1.88295,1.87948v43.69043c0,4.096,1.70236,5.80166,5.80179,5.80166H96.98192v-9.12985H93.65373A1.70772,1.70772,0,0,1,91.77773,544.231Z"/><path d="M125.49748,510.69529c-13.22247,0-23.80464,9.47393-23.80464,22.78669,0,13.39625,10.58217,22.78322,23.80464,22.78322,13.31276,0,23.89493-9.387,23.89493-22.78322C149.39241,520.16922,138.81024,510.69529,125.49748,510.69529Zm0,36.35311c-6.99685,0-12.882-5.46133-12.882-13.56642,0-8.02175,5.88514-13.56989,12.882-13.56989,7.08715,0,12.97229,5.54814,12.97229,13.56989C138.46977,541.58707,132.58463,547.0484,125.49748,547.0484Z"/><path d="M199.59323,544.231v-32.5108H188.761v19.96914c0,7.76476-4.35655,14.67813-12.208,14.67813-5.371,0-6.73987-3.58518-6.73987-8.87633V517.43863c0-3.92579-1.70223-5.71845-5.71831-5.71845h-10.325v9.2168h3.41848a1.6692,1.6692,0,0,1,1.876,1.876v16.89808c0,11.86071,5.71831,16.55413,15.01513,16.55413a16.44062,16.44062,0,0,0,15.02207-9.0465h.1667s-.08335.93793-.08335,1.96283v1.19506c0,3.0712,1.9663,4.86372,5.71831,4.86372h9.98471v-9.12985h-3.41168A1.71288,1.71288,0,0,1,199.59323,544.231Z"/><path d="M254.49817,546.11046A1.70777,1.70777,0,0,1,252.622,544.231V500.45706c0-4.01247-1.79252-5.80165-5.8086-5.80165h-10.325v9.21333h3.41848a1.6702,1.6702,0,0,1,1.876,1.87948v7.6778c0,1.45218.08335,2.56042.08335,2.56042h-.16669s-3.07815-5.29115-12.54847-5.29115c-11.52024,0-19.7955,8.95982-19.7955,22.78669,0,13.4796,7.59431,22.78322,19.37154,22.78322,9.98471,0,13.56989-7.08367,13.56989-7.08367h.16683v1.62235c0,2.56042,1.45219,4.43643,5.37784,4.43643h9.98471v-9.12985Zm-23.38082,1.02475c-6.39926,0-10.75581-5.37783-10.75581-13.65323,0-8.61921,4.954-13.48293,10.9225-13.48293,7.254,0,10.75595,6.65638,10.75595,13.39611C242.04,543.03926,236.74536,547.13521,231.11735,547.13521Z"/></g><g id="deNBI"><path d="M31.375,439.507c7.28707,0,9.6523,4.07237,9.6523,4.07237h.1319s-.069-.85425-.069-1.97092V435.6991a1.28509,1.28509,0,0,0-1.44266-1.44539H37.02262v-7.093H44.9678c3.0876,0,4.466,1.37841,4.466,4.46532v33.68877a1.31434,1.31434,0,0,0,1.44675,1.44539h2.55727v7.02737h-7.6807c-3.022,0-4.13661-1.4447-4.13661-3.41562v-1.24651h-.13189s-2.7582,5.45009-10.44164,5.45009c-9.06321-.00068-14.90763-7.15722-14.90763-17.53393,0-10.63777,6.36858-17.53462,15.23567-17.53462m9.91746,17.46833c0-5.18631-2.69258-10.30905-8.27731-10.30905-4.5938,0-8.40579,3.7416-8.40579,10.37534,0,6.36926,3.3507,10.50587,8.27663,10.50587,4.33342,0,8.40647-3.1491,8.40647-10.57216"/><path d="M186.59718,427.16005c-3.15115,0-4.46532,1.37978-4.46532,4.46532v21.3425c0,2.69327.46061,6.56814.46061,6.56814h-.13189s-2.03585-3.87487-3.87623-6.56814l-17.66516-25.80782h-7.749v37.89234a1.27889,1.27889,0,0,1-1.375,1.40438v-.00341h-5.70363a29.51008,29.51008,0,0,1-6.60709,7.33422h17.821c3.1532,0,4.46328-1.31486,4.46328-4.466v-21.2769c0-2.69327-.45584-6.56745-.45584-6.56745h.12848a70.02847,70.02847,0,0,0,3.87623,6.56745l17.72871,25.74358h7.68412v-37.893a1.31537,1.31537,0,0,1,1.44676-1.4447h2.82243v-7.29048Z"/><path d="M203.67256,434.44985h-4.2685v-7.2898h20.163c8.40511,0,14.44635,4.33547,14.44635,12.01959a10.867,10.867,0,0,1-5.64761,9.981v.12916c5.05852,1.511,7.488,6.23942,7.488,10.96716,0,9.32565-7.421,13.52991-16.09061,13.52991H208.13719c-3.08691,0-4.46463-1.31417-4.46463-4.46532V434.44985Zm15.95869,11.7558c3.61107,0,5.64829-2.62561,5.64829-5.97494s-1.96887-5.78018-5.77676-5.78018h-7.22625v11.75512Zm-5.90934,20.29282h6.69935c4.20016,0,6.5654-2.82517,6.5654-6.76359,0-3.87487-2.42947-6.698-6.5654-6.698h-8.1461v12.01618a1.31526,1.31526,0,0,0,1.44675,1.44539"/><polygon points="239.669 466.498 245.018 466.498 245.018 434.45 239.669 434.45 239.669 427.16 257.826 427.16 257.826 434.45 253.16 434.45 253.16 466.498 257.826 466.498 257.826 473.788 239.669 473.788 239.669 466.498"/><path d="M103.17825,473.87438l-.1278-.09431a29.50082,29.50082,0,0,1-6.59752-7.32671H71.69275c-3.935-.43054-5.58335-2.69669-6.16971-7.967H88.64033s.19614-2.10213.19614-3.08622c0-8.86777-5.25191-15.8931-14.8393-15.8931-10.04868,0-17.01318,7.2242-17.01318,17.53462,0,9.52315,4.83708,16.84507,15.93273,16.84507.54877,0,1.07977-.00684,1.6053-.01436l28.65623.00206Zm-29.1804-27.93115c3.41563,0,6.17245,2.75888,6.30161,6.76359H65.78752c.91917-4.20222,3.94115-6.76359,8.21033-6.76359"/><path d="M120.1429,472.49254a2.41055,2.41055,0,0,0-.29239.09272l-9.12138-13.53439.58954.10086.23042-1.34724-2.66206-.45532-.60761-.628.70576-.26879-6.247-16.403a2.43343,2.43343,0,1,0-1.24562.57144l5.70639,14.9834-7.51378-7.76664a2.49141,2.49141,0,1,0-1.02915.90289l7.95109,8.2187-6.22532-1.0648c-.0086-.07717-.00835-.15362-.02457-.23117a2.46016,2.46016,0,1,0-.21181,1.5774l7.57235,1.29522-4.611,4.13938a2.42238,2.42238,0,0,0-3.47738,2.66148,2.43466,2.43466,0,1,0,4.766-.99774,2.40939,2.40939,0,0,0-.28951-.7231l4.424-3.97154,1.13054,10.39645a2.42421,2.42421,0,1,0,1.36446-.10766l-1.03669-9.5334,8.74727,12.97925a2.42225,2.42225,0,1,0,1.40742-.8864Z"/><path d="M144.06662,454.27589a2.421,2.421,0,0,0-1.28079.728l-5.98578-3.1293,6.34379-2.69021a2.43514,2.43514,0,1,0-.51814-1.26556l-6.29231,2.66835,5.35894-8.78611a2.45656,2.45656,0,1,0-1.17017-.71017l-5.45742,8.94757,1.051.641-1.05755.44848.459,1.08236-1.09534-.082L133.15107,469.092a2.44413,2.44413,0,1,0,1.365.08343l1.11694-14.91058,3.65279,8.71879a2.43824,2.43824,0,1,0,1.27578-.49366l-3.81191-9.0986,5.4223,2.83474a2.43363,2.43363,0,1,0,1.89461-1.95021Zm-7.8489-2.15439.08709-.03692-.05693.10891Z"/><path d="M109.68968,432.84592a2.41905,2.41905,0,0,0,1.20529-.65053l9.38041,5.22872.46833,1.07252,12.49045-5.4547a2.42688,2.42688,0,1,0-.65279-1.20709l-9.86463,4.308,3.97417-5.8579a2.409,2.409,0,0,0,1.20787.0652,2.46734,2.46734,0,1,0-2.3493-.81721l-4.20129,6.19267-2.11305-6.34858a2.44092,2.44092,0,1,0-1.30218.41769l1.94441,5.84192-8.31786-4.63646a2.43128,2.43128,0,1,0-1.86983,1.84576Zm12.26779,3.62851-.31434.13727-.1507-.45277Z"/><rect x="119.91548" y="437.16927" width="2.73507" height="13.85307" transform="translate(-4.12467 1.14709) rotate(-0.53284)"/><rect x="108.12369" y="453.30564" width="14.23369" height="2.73562" transform="translate(-217.04541 123.62303) rotate(-30.88416)"/><rect x="126.98558" y="444.25104" width="2.73491" height="14.01964" transform="translate(-327.0223 564.15096) rotate(-88.0458)"/><path d="M127.89332,449.64861a6.68686,6.68686,0,1,1-7.91648-5.174,6.688,6.688,0,0,1,7.91648,5.174"/><path d="M124.55287,436.46861a3.40774,3.40774,0,1,1-4.03342-2.63655,3.40788,3.40788,0,0,1,4.03342,2.63655"/><path d="M112.46972,457.62865a3.40807,3.40807,0,1,1-4.0341-2.63723,3.40886,3.40886,0,0,1,4.0341,2.63723"/><path d="M138.38142,450.86574a3.40833,3.40833,0,1,1-4.03546-2.63791,3.40862,3.40862,0,0,1,4.03546,2.63791"/></g><rect x="24.28157" y="484.4521" width="225.40234" height="2"/></g><g id="COLOR-2" data-name="COLOR"><g id="CLOUD-2" data-name="CLOUD"><path class="cls-1" d="M47.46191,742.09286c-11.01293,0-19.712-9.55727-19.712-21.41785,0-12.62848,8.53239-20.39658,19.37155-20.39658,5.28768,0,12.54166,2.04979,12.54166,6.48622v3.415H69.81437v-6.7432c0-10.32505-15.18877-13.56642-22.94992-13.56642-17.579,0-30.72509,13.31276-30.72509,30.805,0,17.91936,12.63181,31.82972,31.14891,31.82972a33.57206,33.57206,0,0,0,24.40905-10.41187l-5.89209-8.02174A25.84333,25.84333,0,0,1,47.46191,742.09286Z"/><path class="cls-1" d="M91.77773,740.47051V696.69659c0-4.01247-1.79266-5.80165-5.8018-5.80165h-10.325v9.21333h3.41154a1.67508,1.67508,0,0,1,1.88295,1.87948v43.69043c0,4.096,1.70236,5.80166,5.80179,5.80166H96.98192V742.35H93.65373A1.70772,1.70772,0,0,1,91.77773,740.47051Z"/><path class="cls-1" d="M125.49748,706.93482c-13.22247,0-23.80464,9.47393-23.80464,22.78669,0,13.39625,10.58217,22.78322,23.80464,22.78322,13.31276,0,23.89493-9.387,23.89493-22.78322C149.39241,716.40875,138.81024,706.93482,125.49748,706.93482Zm0,36.3531c-6.99685,0-12.882-5.46132-12.882-13.56641,0-8.02175,5.88514-13.56989,12.882-13.56989,7.08715,0,12.97229,5.54814,12.97229,13.56989C138.46977,737.8266,132.58463,743.28792,125.49748,743.28792Z"/><path class="cls-1" d="M199.59323,740.47051v-32.5108H188.761v19.96914c0,7.76476-4.35655,14.67813-12.208,14.67813-5.371,0-6.73987-3.58518-6.73987-8.87633V713.67816c0-3.92579-1.70223-5.71845-5.71831-5.71845h-10.325v9.2168h3.41848a1.6692,1.6692,0,0,1,1.876,1.876V735.9506c0,11.86071,5.71831,16.55413,15.01513,16.55413a16.44062,16.44062,0,0,0,15.02207-9.0465h.1667s-.08335.93793-.08335,1.96282v1.19506c0,3.07121,1.9663,4.86373,5.71831,4.86373h9.98471V742.35h-3.41168A1.71288,1.71288,0,0,1,199.59323,740.47051Z"/><path class="cls-1" d="M254.49817,742.35a1.70777,1.70777,0,0,1-1.87615-1.87948V696.69659c0-4.01247-1.79252-5.80165-5.8086-5.80165h-10.325v9.21333h3.41848a1.6702,1.6702,0,0,1,1.876,1.87948v7.6778c0,1.45218.08335,2.56042.08335,2.56042h-.16669s-3.07815-5.29115-12.54847-5.29115c-11.52024,0-19.7955,8.95981-19.7955,22.78669,0,13.47959,7.59431,22.78322,19.37154,22.78322,9.98471,0,13.56989-7.08368,13.56989-7.08368h.16683v1.62236c0,2.56042,1.45219,4.43643,5.37784,4.43643h9.98471V742.35Zm-23.38082,1.02475c-6.39926,0-10.75581-5.37783-10.75581-13.65323,0-8.61921,4.954-13.48293,10.9225-13.48293,7.254,0,10.75595,6.65638,10.75595,13.39611C242.04,739.27879,236.74536,743.37474,231.11735,743.37474Z"/></g><g id="deNBI-2" data-name="deNBI"><path class="cls-1" d="M31.375,635.74652c7.28707,0,9.6523,4.07237,9.6523,4.07237h.1319s-.069-.85425-.069-1.97092v-5.90934a1.28509,1.28509,0,0,0-1.44266-1.44539H37.02262v-7.093H44.9678c3.0876,0,4.466,1.37841,4.466,4.46532v33.68877a1.31434,1.31434,0,0,0,1.44675,1.44538h2.55727v7.02738h-7.6807c-3.022,0-4.13661-1.4447-4.13661-3.41562V665.365h-.13189s-2.7582,5.45009-10.44164,5.45009c-9.06321-.00068-14.90763-7.15723-14.90763-17.53393,0-10.63777,6.36858-17.53462,15.23567-17.53462m9.91746,17.46833c0-5.18631-2.69258-10.30906-8.27731-10.30906-4.5938,0-8.40579,3.74161-8.40579,10.37535,0,6.36926,3.3507,10.50587,8.27663,10.50587,4.33342,0,8.40647-3.1491,8.40647-10.57216"/><path class="cls-1" d="M186.59718,623.39958c-3.15115,0-4.46532,1.37977-4.46532,4.46532v21.3425c0,2.69327.46061,6.56814.46061,6.56814h-.13189s-2.03585-3.87487-3.87623-6.56814l-17.66516-25.80782h-7.749v37.89234a1.27889,1.27889,0,0,1-1.375,1.40438v-.00341h-5.70363a29.51008,29.51008,0,0,1-6.60709,7.33422h17.821c3.1532,0,4.46328-1.31486,4.46328-4.466v-21.2769c0-2.69327-.45584-6.56746-.45584-6.56746h.12848a70.02943,70.02943,0,0,0,3.87623,6.56746l17.72871,25.74358h7.68412v-37.893a1.31537,1.31537,0,0,1,1.44676-1.4447h2.82243v-7.29048Z"/><path class="cls-1" d="M203.67256,630.68938h-4.2685v-7.2898h20.163c8.40511,0,14.44635,4.33547,14.44635,12.01959a10.867,10.867,0,0,1-5.64761,9.981v.12917c5.05852,1.511,7.488,6.23942,7.488,10.96716,0,9.32565-7.421,13.5299-16.09061,13.5299H208.13719c-3.08691,0-4.46463-1.31417-4.46463-4.46531V630.68938Zm15.95869,11.7558c3.61107,0,5.64829-2.62561,5.64829-5.97494s-1.96887-5.78018-5.77676-5.78018h-7.22625v11.75512ZM213.72191,662.738h6.69935c4.20016,0,6.5654-2.82516,6.5654-6.76358,0-3.87487-2.42947-6.698-6.5654-6.698h-8.1461v12.01618a1.31526,1.31526,0,0,0,1.44675,1.44538"/><polygon class="cls-1" points="239.669 662.738 245.018 662.738 245.018 630.689 239.669 630.689 239.669 623.4 257.826 623.4 257.826 630.689 253.16 630.689 253.16 662.738 257.826 662.738 257.826 670.028 239.669 670.028 239.669 662.738"/><path class="cls-1" d="M103.17825,670.1139l-.1278-.09431a29.5006,29.5006,0,0,1-6.59752-7.3267H71.69275c-3.935-.43054-5.58335-2.69669-6.16971-7.96705H88.64033s.19614-2.10213.19614-3.08622c0-8.86777-5.25191-15.8931-14.8393-15.8931-10.04868,0-17.01318,7.2242-17.01318,17.53462,0,9.52314,4.83708,16.84506,15.93273,16.84506.54877,0,1.07977-.00683,1.6053-.01435l28.65623.002Zm-29.1804-27.93114c3.41563,0,6.17245,2.75888,6.30161,6.76359H65.78752c.91917-4.20222,3.94115-6.76359,8.21033-6.76359"/><path class="cls-1" d="M120.1429,668.73207a2.41055,2.41055,0,0,0-.29239.09272l-9.12138-13.53439.58954.10086.23042-1.34724-2.66206-.45532-.60761-.628.70576-.26879-6.247-16.403a2.43343,2.43343,0,1,0-1.24562.57144l5.70639,14.9834-7.51378-7.76664A2.49154,2.49154,0,1,0,98.656,644.98l7.95109,8.21871-6.22532-1.0648c-.0086-.07717-.00835-.15363-.02457-.23117a2.46016,2.46016,0,1,0-.21181,1.5774l7.57235,1.29522-4.611,4.13938a2.42238,2.42238,0,0,0-3.47738,2.66147,2.43466,2.43466,0,0,0,4.766-.99773,2.40955,2.40955,0,0,0-.28951-.72311l4.424-3.97154,1.13054,10.39646a2.42421,2.42421,0,1,0,1.36446-.10766l-1.03669-9.5334,8.74727,12.97925a2.42225,2.42225,0,1,0,1.40742-.8864Z"/><path class="cls-1" d="M144.06662,650.51542a2.421,2.421,0,0,0-1.28079.728l-5.98578-3.1293,6.34379-2.69021a2.43515,2.43515,0,1,0-.51814-1.26557l-6.29231,2.66836,5.35894-8.78611a2.45656,2.45656,0,1,0-1.17017-.71017l-5.45742,8.94757,1.051.641-1.05755.44847.459,1.08237-1.09534-.082-1.27073,16.96373a2.44413,2.44413,0,1,0,1.365.08343l1.11694-14.91058,3.65279,8.71879a2.43824,2.43824,0,1,0,1.27578-.49366l-3.81191-9.0986,5.4223,2.83474a2.43363,2.43363,0,1,0,1.89461-1.95021Zm-7.8489-2.15439.08709-.03692-.05693.10891Z"/><path class="cls-1" d="M109.68968,629.08545a2.41905,2.41905,0,0,0,1.20529-.65053l9.38041,5.22872.46833,1.07252,12.49045-5.45471a2.42687,2.42687,0,1,0-.65279-1.20708l-9.86463,4.308,3.97417-5.85789a2.409,2.409,0,0,0,1.20787.0652,2.46734,2.46734,0,1,0-2.3493-.81721l-4.20129,6.19267-2.11305-6.34859a2.4409,2.4409,0,1,0-1.30218.4177l1.94441,5.84192-8.31786-4.63646a2.43128,2.43128,0,1,0-1.86983,1.84576Zm12.26779,3.62851-.31434.13727-.1507-.45278Z"/><rect class="cls-1" x="119.91548" y="633.4088" width="2.73507" height="13.85307" transform="translate(-5.94962 1.15557) rotate(-0.53284)"/><rect class="cls-1" x="108.12369" y="649.54517" width="14.23369" height="2.73562" transform="translate(-317.77596 151.44846) rotate(-30.88416)"/><rect class="cls-1" x="126.98558" y="640.49057" width="2.73491" height="14.01964" transform="translate(-523.1477 753.6986) rotate(-88.0458)"/><path class="cls-1" d="M127.89332,645.88814a6.68686,6.68686,0,1,1-7.91648-5.174,6.688,6.688,0,0,1,7.91648,5.174"/><path class="cls-1" d="M124.55287,632.70813a3.40774,3.40774,0,1,1-4.03342-2.63654,3.4079,3.4079,0,0,1,4.03342,2.63654"/><path class="cls-1" d="M112.46972,653.86818a3.40807,3.40807,0,1,1-4.0341-2.63724,3.40886,3.40886,0,0,1,4.0341,2.63724"/><path class="cls-1" d="M138.38142,647.10527a3.40833,3.40833,0,1,1-4.03546-2.63791,3.40862,3.40862,0,0,1,4.03546,2.63791"/></g><rect class="cls-1" x="24.28157" y="680.69136" width="225.40234" height="2"/></g><g id="COLOR-3" data-name="COLOR"><g id="CLOUD-3" data-name="CLOUD"><path class="cls-2" d="M47.46191,349.61381c-11.01293,0-19.712-9.55728-19.712-21.41786,0-12.62848,8.53239-20.39657,19.37155-20.39657,5.28768,0,12.54166,2.04978,12.54166,6.48621v3.415H69.81437v-6.7432c0-10.325-15.18877-13.56641-22.94992-13.56641-17.579,0-30.72509,13.31276-30.72509,30.805,0,17.91936,12.63181,31.82972,31.14891,31.82972a33.57207,33.57207,0,0,0,24.40905-10.41186l-5.89209-8.02175A25.84332,25.84332,0,0,1,47.46191,349.61381Z"/><path class="cls-2" d="M91.77773,347.99146V304.21753c0-4.01247-1.79266-5.80165-5.8018-5.80165h-10.325v9.21333h3.41154a1.67508,1.67508,0,0,1,1.88295,1.87948v43.69043c0,4.096,1.70236,5.80166,5.80179,5.80166H96.98192v-9.12985H93.65373A1.70772,1.70772,0,0,1,91.77773,347.99146Z"/><path class="cls-2" d="M125.49748,314.45576c-13.22247,0-23.80464,9.47393-23.80464,22.78669,0,13.39625,10.58217,22.78322,23.80464,22.78322,13.31276,0,23.89493-9.387,23.89493-22.78322C149.39241,323.92969,138.81024,314.45576,125.49748,314.45576Zm0,36.35311c-6.99685,0-12.882-5.46132-12.882-13.56642,0-8.02174,5.88514-13.56989,12.882-13.56989,7.08715,0,12.97229,5.54815,12.97229,13.56989C138.46977,345.34755,132.58463,350.80887,125.49748,350.80887Z"/><path class="cls-2" d="M199.59323,347.99146V315.48065H188.761v19.96914c0,7.76476-4.35655,14.67813-12.208,14.67813-5.371,0-6.73987-3.58518-6.73987-8.87633V321.1991c0-3.92579-1.70223-5.71845-5.71831-5.71845h-10.325v9.21681h3.41848a1.66919,1.66919,0,0,1,1.876,1.876v16.89808c0,11.86072,5.71831,16.55413,15.01513,16.55413a16.44062,16.44062,0,0,0,15.02207-9.0465h.1667s-.08335.93794-.08335,1.96283v1.19506c0,3.0712,1.9663,4.86372,5.71831,4.86372h9.98471v-9.12985h-3.41168A1.71288,1.71288,0,0,1,199.59323,347.99146Z"/><path class="cls-2" d="M254.49817,349.87093a1.70777,1.70777,0,0,1-1.87615-1.87947V304.21753c0-4.01247-1.79252-5.80165-5.8086-5.80165h-10.325v9.21333h3.41848a1.6702,1.6702,0,0,1,1.876,1.87948v7.6778c0,1.45218.08335,2.56042.08335,2.56042h-.16669s-3.07815-5.29115-12.54847-5.29115c-11.52024,0-19.7955,8.95982-19.7955,22.78669,0,13.4796,7.59431,22.78322,19.37154,22.78322,9.98471,0,13.56989-7.08367,13.56989-7.08367h.16683v1.62235c0,2.56042,1.45219,4.43643,5.37784,4.43643h9.98471v-9.12985Zm-23.38082,1.02476c-6.39926,0-10.75581-5.37784-10.75581-13.65324,0-8.6192,4.954-13.48293,10.9225-13.48293,7.254,0,10.75595,6.65638,10.75595,13.39611C242.04,346.79973,236.74536,350.89569,231.11735,350.89569Z"/></g><g id="deNBI-3" data-name="deNBI"><path class="cls-2" d="M31.375,243.26746c7.28707,0,9.6523,4.07237,9.6523,4.07237h.1319s-.069-.85425-.069-1.97092v-5.90934a1.28509,1.28509,0,0,0-1.44266-1.44539H37.02262v-7.093H44.9678c3.0876,0,4.466,1.37841,4.466,4.46532v33.68877a1.31434,1.31434,0,0,0,1.44675,1.44539h2.55727v7.02738h-7.6807c-3.022,0-4.13661-1.44471-4.13661-3.41563v-1.24651h-.13189S38.73043,278.336,31.047,278.336c-9.06321-.00068-14.90763-7.15722-14.90763-17.53393,0-10.63777,6.36858-17.53462,15.23567-17.53462m9.91746,17.46833c0-5.1863-2.69258-10.30905-8.27731-10.30905-4.5938,0-8.40579,3.7416-8.40579,10.37534,0,6.36927,3.3507,10.50587,8.27663,10.50587,4.33342,0,8.40647-3.1491,8.40647-10.57216"/><path class="cls-2" d="M186.59718,230.92052c-3.15115,0-4.46532,1.37978-4.46532,4.46532v21.34251c0,2.69327.46061,6.56813.46061,6.56813h-.13189s-2.03585-3.87486-3.87623-6.56813l-17.66516-25.80783h-7.749v37.89234a1.2789,1.2789,0,0,1-1.375,1.40439v-.00342h-5.70363a29.51008,29.51008,0,0,1-6.60709,7.33422h17.821c3.1532,0,4.46328-1.31486,4.46328-4.466v-21.2769c0-2.69327-.45584-6.56745-.45584-6.56745h.12848a70.02847,70.02847,0,0,0,3.87623,6.56745l17.72871,25.74358h7.68412v-37.893a1.31537,1.31537,0,0,1,1.44676-1.44471h2.82243v-7.29048Z"/><path class="cls-2" d="M203.67256,238.21032h-4.2685v-7.2898h20.163c8.40511,0,14.44635,4.33547,14.44635,12.0196a10.867,10.867,0,0,1-5.64761,9.981v.12916c5.05852,1.511,7.488,6.23942,7.488,10.96716,0,9.32565-7.421,13.52991-16.09061,13.52991H208.13719c-3.08691,0-4.46463-1.31417-4.46463-4.46532V238.21032Zm15.95869,11.75581c3.61107,0,5.64829-2.62562,5.64829-5.97495s-1.96887-5.78018-5.77676-5.78018h-7.22625v11.75513Zm-5.90934,20.29281h6.69935c4.20016,0,6.5654-2.82517,6.5654-6.76359,0-3.87486-2.42947-6.698-6.5654-6.698h-8.1461v12.01618a1.31526,1.31526,0,0,0,1.44675,1.44539"/><polygon class="cls-2" points="239.669 270.259 245.018 270.259 245.018 238.21 239.669 238.21 239.669 230.921 257.826 230.921 257.826 238.21 253.16 238.21 253.16 270.259 257.826 270.259 257.826 277.549 239.669 277.549 239.669 270.259"/><path class="cls-2" d="M103.17825,277.63485l-.1278-.09431a29.50082,29.50082,0,0,1-6.59752-7.32671H71.69275c-3.935-.43054-5.58335-2.69668-6.16971-7.967H88.64033s.19614-2.10213.19614-3.08622c0-8.86777-5.25191-15.8931-14.8393-15.8931-10.04868,0-17.01318,7.2242-17.01318,17.53462,0,9.52315,4.83708,16.84507,15.93273,16.84507.54877,0,1.07977-.00684,1.6053-.01436l28.65623.00206ZM73.99785,249.7037c3.41563,0,6.17245,2.75888,6.30161,6.76359H65.78752c.91917-4.20221,3.94115-6.76359,8.21033-6.76359"/><path class="cls-2" d="M120.1429,276.253a2.41055,2.41055,0,0,0-.29239.09272l-9.12138-13.53439.58954.10086.23042-1.34723-2.66206-.45532-.60761-.628.70576-.26879-6.247-16.403a2.43341,2.43341,0,1,0-1.24562.57145l5.70639,14.9834-7.51378-7.76664a2.49154,2.49154,0,1,0-1.02915.90288l7.95109,8.21871-6.22532-1.06481c-.0086-.07717-.00835-.15362-.02457-.23116a2.46015,2.46015,0,1,0-.21181,1.57739l7.57235,1.29522-4.611,4.13939a2.42237,2.42237,0,0,0-3.47738,2.66147,2.43466,2.43466,0,1,0,4.766-.99774,2.40939,2.40939,0,0,0-.28951-.7231l4.424-3.97154,1.13054,10.39645a2.42421,2.42421,0,1,0,1.36446-.10766l-1.03669-9.5334,8.74727,12.97926a2.42224,2.42224,0,1,0,1.40742-.88641Z"/><path class="cls-2" d="M144.06662,258.03636a2.421,2.421,0,0,0-1.28079.728l-5.98578-3.12931,6.34379-2.69021a2.43514,2.43514,0,1,0-.51814-1.26556l-6.29231,2.66835,5.35894-8.7861a2.4566,2.4566,0,1,0-1.17017-.71018l-5.45742,8.94757,1.051.641-1.05755.44848.459,1.08236-1.09534-.082-1.27073,16.96373a2.44411,2.44411,0,1,0,1.365.08342l1.11694-14.91057,3.65279,8.71878a2.43826,2.43826,0,1,0,1.27578-.49365l-3.81191-9.09861,5.4223,2.83474a2.43363,2.43363,0,1,0,1.89461-1.95021Zm-7.8489-2.15439.08709-.03691-.05693.1089Z"/><path class="cls-2" d="M109.68968,236.6064a2.41913,2.41913,0,0,0,1.20529-.65053l9.38041,5.22871.46833,1.07253,12.49045-5.45471a2.42688,2.42688,0,1,0-.65279-1.20709l-9.86463,4.308,3.97417-5.85789a2.409,2.409,0,0,0,1.20787.06519,2.46734,2.46734,0,1,0-2.3493-.81721l-4.20129,6.19267-2.11305-6.34858a2.44092,2.44092,0,1,0-1.30218.41769l1.94441,5.84192-8.31786-4.63646a2.43128,2.43128,0,1,0-1.86983,1.84577Zm12.26779,3.6285-.31434.13727-.1507-.45277Z"/><rect class="cls-2" x="119.91548" y="240.92974" width="2.73507" height="13.85307" transform="translate(-2.29972 1.1386) rotate(-0.53284)"/><rect class="cls-2" x="108.12369" y="257.06611" width="14.23369" height="2.73562" transform="translate(-116.31486 95.7976) rotate(-30.88416)"/><rect class="cls-2" x="126.98558" y="248.01151" width="2.73491" height="14.01964" transform="translate(-130.89691 374.60333) rotate(-88.0458)"/><path class="cls-2" d="M127.89332,253.40908a6.68686,6.68686,0,1,1-7.91648-5.174,6.688,6.688,0,0,1,7.91648,5.174"/><path class="cls-2" d="M124.55287,240.22908a3.40774,3.40774,0,1,1-4.03342-2.63655,3.40788,3.40788,0,0,1,4.03342,2.63655"/><path class="cls-2" d="M112.46972,261.38912a3.40807,3.40807,0,1,1-4.0341-2.63723,3.40887,3.40887,0,0,1,4.0341,2.63723"/><path class="cls-2" d="M138.38142,254.62622a3.40833,3.40833,0,1,1-4.03546-2.63792,3.40861,3.40861,0,0,1,4.03546,2.63792"/></g><rect class="cls-2" x="24.28157" y="288.21284" width="225.40234" height="2"/></g><g id="COLOR-4" data-name="COLOR"><g id="CLOUD-4" data-name="CLOUD"><path class="cls-3" d="M47.46191,153.37428c-11.01293,0-19.712-9.55728-19.712-21.41786,0-12.62848,8.53239-20.39657,19.37155-20.39657,5.28768,0,12.54166,2.04978,12.54166,6.48621v3.415H69.81437v-6.7432c0-10.325-15.18877-13.56641-22.94992-13.56641-17.579,0-30.72509,13.31276-30.72509,30.805,0,17.91936,12.63181,31.82972,31.14891,31.82972a33.57207,33.57207,0,0,0,24.40905-10.41186l-5.89209-8.02175A25.84332,25.84332,0,0,1,47.46191,153.37428Z"/><path class="cls-3" d="M91.77773,151.75193V107.978c0-4.01247-1.79266-5.80166-5.8018-5.80166h-10.325v9.21333h3.41154a1.67508,1.67508,0,0,1,1.88295,1.87948V156.9596c0,4.096,1.70236,5.80165,5.80179,5.80165H96.98192v-9.12984H93.65373A1.70772,1.70772,0,0,1,91.77773,151.75193Z"/><path class="cls-3" d="M125.49748,118.21623c-13.22247,0-23.80464,9.47393-23.80464,22.78669,0,13.39625,10.58217,22.78322,23.80464,22.78322,13.31276,0,23.89493-9.387,23.89493-22.78322C149.39241,127.69016,138.81024,118.21623,125.49748,118.21623Zm0,36.35311c-6.99685,0-12.882-5.46132-12.882-13.56642,0-8.02174,5.88514-13.56988,12.882-13.56988,7.08715,0,12.97229,5.54814,12.97229,13.56988C138.46977,149.108,132.58463,154.56934,125.49748,154.56934Z"/><path class="cls-3" d="M199.59323,151.75193V119.24112H188.761v19.96915c0,7.76475-4.35655,14.67812-12.208,14.67812-5.371,0-6.73987-3.58518-6.73987-8.87633V124.95957c0-3.92579-1.70223-5.71845-5.71831-5.71845h-10.325v9.21681h3.41848a1.66919,1.66919,0,0,1,1.876,1.876V147.232c0,11.86072,5.71831,16.55413,15.01513,16.55413a16.44062,16.44062,0,0,0,15.02207-9.0465h.1667s-.08335.93794-.08335,1.96283v1.19506c0,3.0712,1.9663,4.86372,5.71831,4.86372h9.98471v-9.12984h-3.41168A1.71288,1.71288,0,0,1,199.59323,151.75193Z"/><path class="cls-3" d="M254.49817,153.63141a1.70777,1.70777,0,0,1-1.87615-1.87948V107.978c0-4.01247-1.79252-5.80166-5.8086-5.80166h-10.325v9.21333h3.41848a1.6702,1.6702,0,0,1,1.876,1.87948v7.6778c0,1.45219.08335,2.56043.08335,2.56043h-.16669s-3.07815-5.29116-12.54847-5.29116c-11.52024,0-19.7955,8.95982-19.7955,22.78669,0,13.4796,7.59431,22.78322,19.37154,22.78322,9.98471,0,13.56989-7.08367,13.56989-7.08367h.16683v1.62235c0,2.56043,1.45219,4.43643,5.37784,4.43643h9.98471v-9.12984Zm-23.38082,1.02475c-6.39926,0-10.75581-5.37784-10.75581-13.65324,0-8.6192,4.954-13.48293,10.9225-13.48293,7.254,0,10.75595,6.65639,10.75595,13.39611C242.04,150.5602,236.74536,154.65616,231.11735,154.65616Z"/></g><g id="deNBI-4" data-name="deNBI"><path class="cls-4" d="M31.375,47.02793c7.28707,0,9.6523,4.07237,9.6523,4.07237h.1319s-.069-.85425-.069-1.97092V43.22a1.28509,1.28509,0,0,0-1.44266-1.44538H37.02262v-7.093H44.9678c3.0876,0,4.466,1.37842,4.466,4.46532V72.83576a1.31434,1.31434,0,0,0,1.44675,1.44539h2.55727v7.02738h-7.6807c-3.022,0-4.13661-1.4447-4.13661-3.41562V76.64639h-.13189s-2.7582,5.4501-10.44164,5.4501c-9.06321-.00069-14.90763-7.15723-14.90763-17.53394,0-10.63777,6.36858-17.53462,15.23567-17.53462m9.91746,17.46833c0-5.1863-2.69258-10.30905-8.27731-10.30905-4.5938,0-8.40579,3.7416-8.40579,10.37534,0,6.36927,3.3507,10.50587,8.27663,10.50587,4.33342,0,8.40647-3.14909,8.40647-10.57216"/><path class="cls-3" d="M186.59718,34.681c-3.15115,0-4.46532,1.37978-4.46532,4.46532V60.48882c0,2.69327.46061,6.56813.46061,6.56813h-.13189s-2.03585-3.87486-3.87623-6.56813L160.91919,34.681h-7.749V72.57334a1.2789,1.2789,0,0,1-1.375,1.40438V73.9743h-5.70363a29.50991,29.50991,0,0,1-6.60709,7.33422h17.821c3.1532,0,4.46328-1.31486,4.46328-4.466V55.56562c0-2.69327-.45584-6.56745-.45584-6.56745h.12848a70.02847,70.02847,0,0,0,3.87623,6.56745l17.72871,25.74359h7.68412v-37.893a1.31537,1.31537,0,0,1,1.44676-1.4447h2.82243V34.681Z"/><path class="cls-3" d="M203.67256,41.97079h-4.2685V34.681h20.163c8.40511,0,14.44635,4.33547,14.44635,12.0196a10.867,10.867,0,0,1-5.64761,9.981v.12916c5.05852,1.511,7.488,6.23942,7.488,10.96717,0,9.32564-7.421,13.5299-16.09061,13.5299H208.13719c-3.08691,0-4.46463-1.31417-4.46463-4.46532V41.97079ZM219.63125,53.7266c3.61107,0,5.64829-2.62562,5.64829-5.97495s-1.96887-5.78017-5.77676-5.78017h-7.22625V53.7266Zm-5.90934,20.29281h6.69935c4.20016,0,6.5654-2.82517,6.5654-6.76359,0-3.87486-2.42947-6.698-6.5654-6.698h-8.1461V72.574a1.31526,1.31526,0,0,0,1.44675,1.44539"/><polygon class="cls-3" points="239.669 74.019 245.018 74.019 245.018 41.971 239.669 41.971 239.669 34.681 257.826 34.681 257.826 41.971 253.16 41.971 253.16 74.019 257.826 74.019 257.826 81.309 239.669 81.309 239.669 74.019"/><path class="cls-4" d="M103.17825,81.39532l-.1278-.09431a29.50082,29.50082,0,0,1-6.59752-7.32671H71.69275c-3.935-.43054-5.58335-2.69668-6.16971-7.967H88.64033s.19614-2.10213.19614-3.08622c0-8.86777-5.25191-15.8931-14.8393-15.8931-10.04868,0-17.01318,7.2242-17.01318,17.53462,0,9.52315,4.83708,16.84507,15.93273,16.84507.54877,0,1.07977-.00684,1.6053-.01436l28.65623.00206ZM73.99785,53.46417c3.41563,0,6.17245,2.75888,6.30161,6.76359H65.78752c.91917-4.20221,3.94115-6.76359,8.21033-6.76359"/><path class="cls-2" d="M120.1429,80.01348a2.40883,2.40883,0,0,0-.29239.09273l-9.12138-13.5344.58954.10086.23042-1.34723-2.66206-.45532-.60761-.62805.70576-.26879-6.247-16.403a2.43341,2.43341,0,1,0-1.24562.57145l5.70639,14.9834-7.51378-7.76664a2.49154,2.49154,0,1,0-1.02915.90288l7.95109,8.21871-6.22532-1.06481c-.0086-.07716-.00835-.15362-.02457-.23116a2.46015,2.46015,0,1,0-.21181,1.57739l7.57235,1.29522-4.611,4.13939a2.42237,2.42237,0,0,0-3.47738,2.66147,2.43466,2.43466,0,1,0,4.766-.99773,2.40934,2.40934,0,0,0-.28951-.72311l4.424-3.97154,1.13054,10.39645a2.42423,2.42423,0,1,0,1.36446-.10765l-1.03669-9.53341,8.74727,12.97926a2.42224,2.42224,0,1,0,1.40742-.88641Z"/><path class="cls-2" d="M144.06662,61.79683a2.421,2.421,0,0,0-1.28079.728l-5.98578-3.12931,6.34379-2.69021a2.43514,2.43514,0,1,0-.51814-1.26556l-6.29231,2.66835,5.35894-8.7861a2.4566,2.4566,0,1,0-1.17017-.71018l-5.45742,8.94757,1.051.641-1.05755.44848.459,1.08237-1.09534-.08205-1.27073,16.96373a2.44411,2.44411,0,1,0,1.365.08342l1.11694-14.91057,3.65279,8.71878a2.43826,2.43826,0,1,0,1.27578-.49365l-3.81191-9.09861L142.172,63.747a2.43363,2.43363,0,1,0,1.89461-1.95021Zm-7.8489-2.15439.08709-.03691-.05693.10891Z"/><path class="cls-2" d="M109.68968,40.36687a2.41913,2.41913,0,0,0,1.20529-.65053l9.38041,5.22872.46833,1.07252,12.49045-5.45471a2.42688,2.42688,0,1,0-.65279-1.20708l-9.86463,4.308,3.97417-5.85789a2.409,2.409,0,0,0,1.20787.06519,2.46732,2.46732,0,1,0-2.3493-.8172l-4.20129,6.19266L119.23514,36.898a2.4409,2.4409,0,1,0-1.30218.4177l1.94441,5.84191-8.31786-4.63646a2.43128,2.43128,0,1,0-1.86983,1.84577Zm12.26779,3.6285-.31434.13728-.1507-.45278Z"/><rect class="cls-5" x="119.91548" y="44.69021" width="2.73507" height="13.85307" transform="translate(-0.47477 1.13012) rotate(-0.53284)"/><rect class="cls-5" x="108.12369" y="60.82659" width="14.23369" height="2.73562" transform="translate(-15.58431 67.97218) rotate(-30.88416)"/><rect class="cls-5" x="126.98558" y="51.77198" width="2.73491" height="14.01964" transform="translate(65.22849 185.05569) rotate(-88.0458)"/><path class="cls-6" d="M127.89332,57.16956a6.68686,6.68686,0,1,1-7.91648-5.174,6.688,6.688,0,0,1,7.91648,5.174"/><path class="cls-5" d="M124.55287,43.98955a3.40774,3.40774,0,1,1-4.03342-2.63655,3.4079,3.4079,0,0,1,4.03342,2.63655"/><path class="cls-5" d="M112.46972,65.14959a3.40807,3.40807,0,1,1-4.0341-2.63723,3.40887,3.40887,0,0,1,4.0341,2.63723"/><path class="cls-5" d="M138.38142,58.38669a3.40833,3.40833,0,1,1-4.03546-2.63792,3.40861,3.40861,0,0,1,4.03546,2.63792"/></g><rect class="cls-2" x="24.28157" y="91.97309" width="225.40234" height="2"/></g></svg>